<?xml version="1.0" encoding="UTF-8" standalone="no"?>
<!DOCTYPE svg PUBLIC "-//W3C//DTD SVG 1.1//EN" "http://www.w3.org/Graphics/SVG/1.1/DTD/svg11.dtd">
<svg xmlns="http://www.w3.org/2000/svg" version="1.1" viewBox="0.00 0.00 573.00 282.00">
<g stroke-width="2.00" fill="none" stroke-linecap="butt">
<path stroke="#804f11" vector-effect="non-scaling-stroke" d="
  M 442.73 57.14
  Q 300.45 57.12 158.25 57.14
  Q 154.28 57.14 152.37 57.89
  C 146.92 60.02 146.39 64.15 146.36 70.01
  Q 146.17 100.80 146.12 131.51"
/>
<path stroke="#5b3211" vector-effect="non-scaling-stroke" d="
  M 146.12 131.51
  L 146.24 136.46"
/>
<path stroke="#804f11" vector-effect="non-scaling-stroke" d="
  M 146.24 136.46
  Q 146.37 149.20 146.28 161.97
  C 146.25 167.23 146.64 171.33 151.21 173.84
  Q 153.72 175.22 160.02 175.22
  Q 314.14 175.23 468.25 175.28
  Q 475.25 175.28 478.13 170.11
  Q 479.49 167.66 479.49 162.65
  Q 479.49 124.08 479.51 85.64"
/>
<path stroke="#848382" vector-effect="non-scaling-stroke" d="
  M 479.51 85.64
  Q 493.22 82.07 499.60 71.12
  C 504.91 61.99 505.35 50.13 500.12 40.88
  C 484.12 12.61 441.44 24.72 442.73 57.14"
/>
<path stroke="#fbcb8e" vector-effect="non-scaling-stroke" d="
  M 479.51 85.64
  C 460.73 88.74 443.91 76.38 442.73 57.14"
/>
<path stroke="#d27a1d" vector-effect="non-scaling-stroke" d="
  M 146.24 136.46
  Q 146.90 133.73 146.12 131.51"
/>
<path stroke="#323332" vector-effect="non-scaling-stroke" d="
  M 119.47 139.23
  Q 121.81 138.26 122.54 136.27"
/>
<path stroke="#5b3211" vector-effect="non-scaling-stroke" d="
  M 122.54 136.27
  Q 123.97 135.10 124.80 133.26
  Q 127.48 127.38 126.14 122.20"
/>
<path stroke="#848382" vector-effect="non-scaling-stroke" d="
  M 126.14 122.20
  C 124.03 114.88 119.94 111.23 112.52 109.85
  Q 111.74 109.71 112.49 109.45
  Q 115.88 108.28 118.46 105.99"
/>
<path stroke="#5b3211" vector-effect="non-scaling-stroke" d="
  M 118.46 105.99
  Q 121.84 103.78 122.59 100.06"
/>
<path stroke="#848382" vector-effect="non-scaling-stroke" d="
  M 122.59 100.06
  Q 122.96 99.41 123.01 98.58"
/>
<path stroke="#5b3211" vector-effect="non-scaling-stroke" d="
  M 123.01 98.58
  Q 123.97 95.34 123.05 92.15"
/>
<path stroke="#848382" vector-effect="non-scaling-stroke" d="
  M 123.05 92.15
  L 121.17 87.27"
/>
<path stroke="#5b3211" vector-effect="non-scaling-stroke" d="
  M 121.17 87.27
  Q 119.66 84.35 116.38 82.58"
/>
<path stroke="#848382" vector-effect="non-scaling-stroke" d="
  M 116.38 82.58
  Q 110.66 79.66 107.00 79.61
  Q 91.54 79.39 76.28 79.53
  A 0.70 0.70 0.0 0 0 75.59 80.23
  L 75.60 142.63
  A 0.76 0.76 0.0 0 0 76.36 143.39
  Q 91.70 143.54 106.88 143.37
  Q 113.61 143.30 119.47 139.23"
/>
<path stroke="#d6ae8e" vector-effect="non-scaling-stroke" d="
  M 116.38 82.58
  L 121.17 87.27"
/>
<path stroke="#d6ae8e" vector-effect="non-scaling-stroke" d="
  M 123.05 92.15
  L 123.01 98.58"
/>
<path stroke="#d6ae8e" vector-effect="non-scaling-stroke" d="
  M 122.59 100.06
  Q 122.65 99.85 122.60 99.69
  Q 122.52 99.45 122.42 99.68
  Q 121.00 103.14 118.46 105.99"
/>
<path stroke="#d6ae8e" vector-effect="non-scaling-stroke" d="
  M 126.14 122.20
  Q 126.32 130.11 122.54 136.27"
/>
<path stroke="#aeafaf" vector-effect="non-scaling-stroke" d="
  M 122.54 136.27
  Q 120.74 137.49 119.47 139.23"
/>
<path stroke="#848382" vector-effect="non-scaling-stroke" d="
  M 261.61 202.08
  A 2.24 2.24 0.0 0 0 259.37 199.84
  A 2.24 2.24 0.0 0 0 257.13 202.08
  A 2.24 2.24 0.0 0 0 259.37 204.32
  A 2.24 2.24 0.0 0 0 261.61 202.08"
/>
<path stroke="#848382" vector-effect="non-scaling-stroke" d="
  M 309.89 202.09
  A 2.24 2.24 0.0 0 0 307.65 199.85
  A 2.24 2.24 0.0 0 0 305.41 202.09
  A 2.24 2.24 0.0 0 0 307.65 204.33
  A 2.24 2.24 0.0 0 0 309.89 202.09"
/>
<path stroke="#848382" vector-effect="non-scaling-stroke" d="
  M 432.55 226.48
  L 435.93 226.48
  Q 436.18 226.48 436.33 226.27
  C 441.40 218.96 441.87 208.17 436.32 200.95
  Q 436.18 200.75 435.93 200.75
  L 432.48 200.75
  Q 432.30 200.75 432.39 200.91
  Q 439.28 213.59 432.38 226.20
  Q 432.23 226.48 432.55 226.48"
/>
<path stroke="#848382" vector-effect="non-scaling-stroke" d="
  M 130.05 213.43
  A 0.31 0.31 0.0 0 1 129.48 213.60
  L 120.96 201.18
  A 0.31 0.31 0.0 0 0 120.70 201.04
  L 117.33 201.08
  A 0.31 0.31 0.0 0 0 117.02 201.39
  L 117.02 221.49
  A 0.31 0.31 0.0 0 0 117.32 221.80
  L 121.11 221.86
  A 0.31 0.31 0.0 0 0 121.43 221.55
  L 121.39 209.47
  A 0.31 0.31 0.0 0 1 121.96 209.30
  L 130.46 221.66
  A 0.31 0.31 0.0 0 0 130.71 221.79
  L 134.08 221.89
  A 0.31 0.31 0.0 0 0 134.40 221.58
  L 134.41 201.38
  A 0.31 0.31 0.0 0 0 134.10 201.07
  L 130.35 201.10
  A 0.31 0.31 0.0 0 0 130.04 201.41
  L 130.05 213.43"
/>
<path stroke="#848382" vector-effect="non-scaling-stroke" d="
  M 159.96 207.95
  L 159.96 201.52
  Q 159.96 201.07 159.52 201.07
  L 156.02 201.06
  Q 155.61 201.06 155.61 201.48
  L 155.61 221.19
  Q 155.61 221.78 156.20 221.80
  L 159.33 221.90
  A 0.57 0.57 0.0 0 0 159.92 221.36
  L 159.96 220.44
  Q 159.99 219.82 160.44 220.24
  Q 163.67 223.30 166.99 221.63
  C 171.94 219.14 172.15 210.06 167.68 207.03
  Q 164.11 204.61 160.31 208.11
  Q 159.96 208.43 159.96 207.95"
/>
<path stroke="#848382" vector-effect="non-scaling-stroke" d="
  M 201.54 207.76
  A 0.37 0.37 0.0 0 1 200.83 207.89
  Q 200.53 207.10 199.20 206.68
  C 189.35 203.59 187.79 219.30 195.27 221.91
  Q 198.51 223.04 201.26 220.07
  Q 201.79 219.49 201.67 220.27
  L 201.52 221.25
  A 0.49 0.49 0.0 0 0 202.00 221.81
  L 205.24 221.86
  Q 205.84 221.86 205.84 221.26
  L 205.83 201.31
  A 0.26 0.25 -1.1 0 0 205.56 201.06
  L 201.83 201.08
  Q 201.57 201.08 201.57 201.34
  L 201.54 207.76"
/>
<path stroke="#848382" vector-effect="non-scaling-stroke" d="
  M 335.41 207.97
  L 335.45 201.76
  Q 335.45 201.07 334.76 201.08
  L 331.74 201.09
  Q 331.07 201.09 331.07 201.76
  L 331.04 221.16
  Q 331.04 221.78 331.66 221.80
  L 334.68 221.88
  Q 335.27 221.90 335.29 221.31
  L 335.31 220.24
  Q 335.33 219.29 335.89 220.06
  C 338.30 223.43 343.52 222.47 345.19 218.98
  C 347.21 214.74 346.76 207.61 341.34 206.25
  Q 338.24 205.48 335.84 208.14
  Q 335.40 208.63 335.41 207.97"
/>
<path stroke="#848382" vector-effect="non-scaling-stroke" d="
  M 313.75 206.27
  L 312.68 206.29
  Q 312.16 206.29 312.16 206.82
  L 312.17 208.90
  A 0.61 0.61 0.0 0 0 312.78 209.51
  L 313.74 209.50
  Q 314.28 209.50 314.28 210.04
  C 314.26 215.00 312.41 223.88 321.11 221.92
  Q 321.74 221.78 321.62 221.15
  L 321.30 219.31
  Q 321.19 218.70 320.57 218.64
  L 319.31 218.53
  Q 318.66 218.47 318.65 217.81
  L 318.61 210.19
  Q 318.61 209.48 319.31 209.49
  L 320.86 209.51
  Q 321.50 209.52 321.50 208.89
  L 321.50 207.00
  Q 321.50 206.25 320.75 206.26
  L 319.08 206.29
  Q 318.61 206.29 318.61 205.83
  L 318.63 203.34
  Q 318.63 202.55 317.84 202.55
  L 315.11 202.54
  Q 314.25 202.54 314.26 203.39
  L 314.26 205.75
  Q 314.26 206.27 313.75 206.27"
/>
<path stroke="#848382" vector-effect="non-scaling-stroke" d="
  M 366.72 206.29
  L 365.72 206.27
  Q 365.18 206.25 365.17 206.78
  L 365.12 209.14
  A 0.38 0.38 0.0 0 0 365.51 209.53
  L 366.75 209.50
  Q 367.24 209.48 367.25 209.98
  C 367.29 214.85 365.37 224.05 374.19 221.88
  Q 374.86 221.71 374.73 221.03
  L 374.40 219.24
  Q 374.29 218.67 373.71 218.64
  L 372.48 218.56
  Q 371.70 218.51 371.70 217.73
  L 371.67 210.03
  A 0.54 0.54 0.0 0 1 372.22 209.49
  L 374.03 209.53
  Q 374.61 209.54 374.60 208.96
  L 374.57 206.91
  Q 374.56 206.26 373.91 206.26
  L 372.23 206.28
  Q 371.68 206.29 371.68 205.73
  L 371.69 203.36
  Q 371.69 202.53 370.86 202.53
  L 368.11 202.54
  Q 367.25 202.54 367.25 203.39
  L 367.25 205.77
  Q 367.25 206.30 366.72 206.29"
/>
<path stroke="#848382" vector-effect="non-scaling-stroke" d="
  M 378.43 209.97
  C 378.40 214.73 376.61 224.34 385.38 221.77
  Q 385.83 221.64 385.75 221.18
  L 385.45 219.29
  Q 385.35 218.73 384.78 218.66
  L 383.33 218.49
  Q 382.74 218.43 382.74 217.83
  L 382.72 210.01
  Q 382.71 209.48 383.24 209.49
  L 385.04 209.53
  Q 385.62 209.54 385.62 208.96
  L 385.63 206.88
  Q 385.64 206.25 385.00 206.26
  L 383.26 206.29
  Q 382.73 206.30 382.73 205.76
  L 382.73 203.39
  Q 382.73 202.56 381.89 202.55
  L 379.19 202.54
  Q 378.41 202.53 378.42 203.31
  L 378.46 205.78
  Q 378.47 206.29 377.97 206.28
  L 376.76 206.28
  Q 376.30 206.28 376.30 206.74
  L 376.27 209.02
  Q 376.27 209.52 376.77 209.52
  L 377.95 209.49
  Q 378.43 209.49 378.43 209.97"
/>
<path stroke="#848382" vector-effect="non-scaling-stroke" d="
  M 152.6246 213.1102
  A 6.93 6.93 0.0 0 0 145.6584 206.2165
  L 144.2984 206.2237
  A 6.93 6.93 0.0 0 0 137.4048 213.1899
  L 137.4154 215.2298
  A 6.93 6.93 0.0 0 0 144.3816 222.1235
  L 145.7416 222.1163
  A 6.93 6.93 0.0 0 0 152.6352 215.1501
  L 152.6246 213.1102"
/>
<path stroke="#848382" vector-effect="non-scaling-stroke" d="
  M 188.3388 213.0505
  A 6.91 6.91 0.0 0 0 181.3568 206.2132
  L 179.9769 206.2277
  A 6.91 6.91 0.0 0 0 173.1396 213.2096
  L 173.1612 215.2695
  A 6.91 6.91 0.0 0 0 180.1432 222.1068
  L 181.5231 222.0923
  A 6.91 6.91 0.0 0 0 188.3604 215.1104
  L 188.3388 213.0505"
/>
<path stroke="#848382" vector-effect="non-scaling-stroke" d="
  M 216.43 216.85
  Q 216.08 218.10 215.74 216.85
  L 212.98 206.92
  Q 212.80 206.29 212.16 206.29
  L 208.80 206.27
  Q 208.23 206.27 208.41 206.81
  Q 210.91 214.10 213.38 221.04
  C 214.24 223.46 213.08 224.78 210.53 224.18
  Q 210.22 224.10 210.15 224.41
  L 209.49 227.28
  A 0.32 0.32 0.0 0 0 209.72 227.66
  Q 216.02 229.24 217.92 223.71
  Q 220.80 215.37 223.78 206.96
  A 0.52 0.52 0.0 0 0 223.29 206.27
  L 220.02 206.28
  Q 219.39 206.28 219.23 206.88
  L 216.43 216.85"
/>
<path stroke="#848382" vector-effect="non-scaling-stroke" d="
  M 250.70 206.28
  A 0.30 0.30 0.0 0 0 250.41 206.52
  L 248.37 216.04
  A 0.30 0.30 0.0 0 1 247.78 216.05
  L 245.53 206.49
  A 0.30 0.30 0.0 0 0 245.24 206.26
  L 241.34 206.29
  A 0.30 0.30 0.0 0 0 241.05 206.52
  L 238.82 215.94
  A 0.30 0.30 0.0 0 1 238.24 215.94
  L 236.16 206.51
  A 0.30 0.30 0.0 0 0 235.87 206.27
  L 232.05 206.29
  A 0.30 0.30 0.0 0 0 231.76 206.67
  L 235.85 221.64
  A 0.30 0.30 0.0 0 0 236.14 221.86
  L 240.37 221.80
  A 0.30 0.30 0.0 0 0 240.66 221.58
  L 242.98 212.74
  A 0.30 0.30 0.0 0 1 243.56 212.74
  L 245.98 221.62
  A 0.30 0.30 0.0 0 0 246.27 221.84
  L 250.46 221.84
  A 0.30 0.30 0.0 0 0 250.75 221.62
  L 254.75 206.64
  A 0.30 0.30 0.0 0 0 254.46 206.26
  L 250.70 206.28"
/>
<path stroke="#848382" vector-effect="non-scaling-stroke" d="
  M 261.51 206.57
  A 0.30 0.30 0.0 0 0 261.21 206.27
  L 257.51 206.27
  A 0.30 0.30 0.0 0 0 257.21 206.57
  L 257.21 221.57
  A 0.30 0.30 0.0 0 0 257.51 221.87
  L 261.21 221.87
  A 0.30 0.30 0.0 0 0 261.51 221.57
  L 261.51 206.57"
/>
<path stroke="#848382" vector-effect="non-scaling-stroke" d="
  M 269.03 207.92
  Q 269.02 207.53 269.10 206.94
  Q 269.19 206.29 268.53 206.29
  L 265.47 206.27
  Q 264.95 206.26 264.95 206.78
  L 264.95 221.52
  Q 264.95 221.84 265.27 221.84
  L 268.98 221.83
  A 0.31 0.31 0.0 0 0 269.29 221.52
  L 269.31 212.43
  A 2.72 2.72 0.0 0 1 272.07 209.72
  L 272.86 209.73
  A 2.11 2.11 0.0 0 1 274.95 211.83
  L 275.00 221.54
  Q 275.00 221.84 275.30 221.84
  L 278.99 221.83
  Q 279.26 221.83 279.27 221.56
  C 279.45 218.54 280.10 210.50 278.18 208.00
  C 276.32 205.58 271.29 205.36 269.75 208.10
  Q 269.07 209.30 269.03 207.92"
/>
<path stroke="#848382" vector-effect="non-scaling-stroke" d="
  M 291.63 217.88
  Q 291.47 218.57 290.48 218.90
  Q 287.81 219.78 286.53 217.74
  Q 286.18 217.19 285.52 217.21
  L 282.57 217.30
  Q 281.99 217.32 282.15 217.88
  C 284.36 225.88 299.97 221.69 295.33 214.83
  C 293.54 212.17 289.04 213.34 287.25 211.67
  Q 286.67 211.14 286.87 210.42
  C 287.47 208.24 290.68 209.11 291.67 210.59
  Q 291.98 211.06 292.55 211.01
  L 295.19 210.77
  Q 295.76 210.72 295.61 210.17
  C 294.00 204.06 281.86 205.09 282.41 211.15
  C 282.78 215.25 287.51 215.54 290.58 216.21
  A 1.39 1.38 -77.2 0 1 291.63 217.88"
/>
<path stroke="#848382" vector-effect="non-scaling-stroke" d="
  M 309.76 206.57
  A 0.30 0.30 0.0 0 0 309.46 206.27
  L 305.80 206.27
  A 0.30 0.30 0.0 0 0 305.50 206.57
  L 305.50 221.55
  A 0.30 0.30 0.0 0 0 305.80 221.85
  L 309.46 221.85
  A 0.30 0.30 0.0 0 0 309.76 221.55
  L 309.76 206.57"
/>
<path stroke="#848382" vector-effect="non-scaling-stroke" d="
  M 353.77 215.22
  L 362.98 215.23
  Q 363.41 215.24 363.42 214.80
  C 363.76 203.13 348.97 203.63 348.58 213.26
  Q 348.18 223.16 358.27 222.03
  Q 361.78 221.64 363.24 218.08
  Q 363.52 217.40 362.79 217.36
  L 360.02 217.20
  Q 359.44 217.16 359.11 217.64
  Q 357.82 219.53 355.45 218.86
  Q 353.78 218.39 353.09 216.80
  L 352.95 216.48
  Q 352.40 215.22 353.77 215.22"
/>
<path stroke="#848382" vector-effect="non-scaling-stroke" d="
  M 392.79 215.23
  L 402.22 215.23
  Q 402.58 215.23 402.63 214.87
  C 403.78 206.83 394.05 202.69 389.43 209.07
  C 386.78 212.73 387.28 220.02 392.49 221.71
  C 396.26 222.93 400.91 222.06 402.63 218.00
  A 0.46 0.46 0.0 0 0 402.23 217.37
  L 399.27 217.19
  Q 398.61 217.15 398.26 217.72
  C 396.75 220.25 392.10 219.03 392.30 215.68
  Q 392.33 215.23 392.79 215.23"
/>
<path stroke="#848382" vector-effect="non-scaling-stroke" d="
  M 409.76 208.24
  L 409.79 206.79
  Q 409.80 206.27 409.29 206.27
  L 406.00 206.27
  Q 405.53 206.27 405.53 206.75
  L 405.53 221.54
  Q 405.53 221.85 405.84 221.85
  L 409.61 221.85
  A 0.33 0.33 0.0 0 0 409.94 221.53
  C 409.98 218.32 408.22 208.56 414.25 209.99
  A 0.53 0.52 15.0 0 0 414.88 209.63
  L 415.67 206.88
  Q 415.77 206.51 415.41 206.40
  Q 411.79 205.24 410.22 208.36
  Q 409.73 209.34 409.76 208.24"
/>
<path stroke="#848382" vector-effect="non-scaling-stroke" d="
  M 429.42 208.81
  A 2.42 2.42 0.0 0 0 427.00 206.39
  A 2.42 2.42 0.0 0 0 424.58 208.81
  A 2.42 2.42 0.0 0 0 427.00 211.23
  A 2.42 2.42 0.0 0 0 429.42 208.81"
/>
<path stroke="#848382" vector-effect="non-scaling-stroke" d="
  M 429.41 219.74
  A 2.41 2.41 0.0 0 0 427.00 217.33
  A 2.41 2.41 0.0 0 0 424.59 219.74
  A 2.41 2.41 0.0 0 0 427.00 222.15
  A 2.41 2.41 0.0 0 0 429.41 219.74"
/>
<path stroke="#aeafaf" vector-effect="non-scaling-stroke" d="
  M 499.94 55.91
  A 26.09 26.09 0.0 0 0 473.85 29.82
  A 26.09 26.09 0.0 0 0 447.76 55.91
  A 26.09 26.09 0.0 0 0 473.85 82.00
  A 26.09 26.09 0.0 0 0 499.94 55.91"
/>
<path stroke="#aeafaf" vector-effect="non-scaling-stroke" d="
  M 465.25 49.50
  Q 464.81 50.86 466.25 50.87
  L 483.26 50.90
  Q 483.49 50.90 483.42 50.68
  L 480.97 42.33
  A 0.31 0.30 -11.1 0 0 480.64 42.11
  C 476.93 42.47 472.75 43.94 469.08 42.55
  Q 467.66 42.02 467.19 43.46
  L 465.25 49.50"
/>
<path stroke="#aeafaf" vector-effect="non-scaling-stroke" d="
  M 458.85 56.65
  Q 456.09 57.71 459.04 57.70
  L 490.20 57.70
  A 0.35 0.35 0.0 0 0 490.33 57.02
  Q 474.67 50.63 458.85 56.65"
/>
<path stroke="#aeafaf" vector-effect="non-scaling-stroke" d="
  M 475.46 64.71
  C 475.71 70.36 482.99 72.25 485.54 67.25
  C 488.62 61.20 480.07 56.25 476.12 62.09
  Q 475.86 62.49 475.38 62.50
  L 472.76 62.57
  A 0.77 0.75 71.8 0 1 472.09 62.22
  C 468.68 56.98 460.55 60.28 462.01 65.75
  C 463.68 72.03 472.22 71.47 472.66 64.68
  Q 472.70 64.15 473.23 64.12
  L 474.72 64.04
  A 0.70 0.70 0.0 0 1 475.46 64.71"
/>
<path stroke="#804f11" vector-effect="non-scaling-stroke" d="
  M 350.93 78.80
  C 342.34 86.74 357.44 97.10 361.85 85.39"
/>
<path stroke="#d27a1d" vector-effect="non-scaling-stroke" d="
  M 361.85 85.39
  C 362.24 83.25 361.18 77.47 357.81 78.26"
/>
<path stroke="#804f11" vector-effect="non-scaling-stroke" d="
  M 357.81 78.26
  L 357.22 78.00"
/>
<path stroke="#d27a1d" vector-effect="non-scaling-stroke" d="
  M 357.22 78.00
  Q 357.06 77.33 356.26 77.24
  Q 353.06 76.86 350.93 78.80"
/>
<path stroke="#5b3211" vector-effect="non-scaling-stroke" d="
  M 357.22 78.00
  Q 353.89 77.42 350.93 78.80"
/>
<path stroke="#5b3211" vector-effect="non-scaling-stroke" d="
  M 357.81 78.26
  Q 361.87 80.72 361.85 85.39"
/>
<path stroke="#804f11" vector-effect="non-scaling-stroke" d="
  M 172.77 80.82
  C 164.06 84.32 159.96 91.57 160.94 100.75
  C 161.52 106.14 164.52 109.90 169.26 112.47"
/>
<path stroke="#d27a1d" vector-effect="non-scaling-stroke" d="
  M 169.26 112.47
  Q 172.05 115.11 176.00 115.86
  Q 185.43 117.64 190.54 119.23
  Q 197.26 121.33 196.77 128.20"
/>
<path stroke="#804f11" vector-effect="non-scaling-stroke" d="
  M 196.77 128.20
  Q 195.33 130.99 192.86 132.23"
/>
<path stroke="#d27a1d" vector-effect="non-scaling-stroke" d="
  M 192.86 132.23
  L 187.43 133.74"
/>
<path stroke="#804f11" vector-effect="non-scaling-stroke" d="
  M 187.43 133.74
  C 181.07 134.58 173.58 132.72 171.83 125.73
  Q 171.71 125.25 171.22 125.25
  L 159.79 125.27
  A 0.58 0.57 -7.0 0 0 159.23 125.98
  C 159.84 128.31 159.92 130.79 161.07 132.85
  Q 162.61 135.61 164.66 137.78"
/>
<path stroke="#d27a1d" vector-effect="non-scaling-stroke" d="
  M 164.66 137.78
  Q 167.47 141.42 172.39 143.04
  Q 172.77 143.16 173.17 143.10
  Q 173.65 143.02 173.93 143.34
  Q 174.19 143.63 174.56 143.71
  Q 184.13 145.70 193.75 143.89
  Q 198.86 142.93 202.37 139.53"
/>
<path stroke="#804f11" vector-effect="non-scaling-stroke" d="
  M 202.37 139.53
  Q 213.07 131.04 208.87 117.62
  C 207.98 114.75 205.87 112.98 203.77 110.99"
/>
<path stroke="#d27a1d" vector-effect="non-scaling-stroke" d="
  M 203.77 110.99
  Q 202.77 109.17 200.54 109.18"
/>
<path stroke="#804f11" vector-effect="non-scaling-stroke" d="
  M 200.54 109.18
  Q 194.14 106.95 187.41 105.59
  C 181.24 104.33 171.33 102.52 174.39 93.92
  Q 175.15 91.76 178.52 89.83"
/>
<path stroke="#d27a1d" vector-effect="non-scaling-stroke" d="
  M 178.52 89.83
  C 180.53 90.44 182.22 89.26 183.99 89.28
  C 189.40 89.32 195.18 91.03 196.19 97.15
  A 1.03 1.03 0.0 0 0 197.23 98.01
  L 208.95 97.65"
/>
<path stroke="#804f11" vector-effect="non-scaling-stroke" d="
  M 208.95 97.65
  L 207.71 91.06"
/>
<path stroke="#d27a1d" vector-effect="non-scaling-stroke" d="
  M 207.71 91.06
  Q 207.86 90.25 207.21 89.57
  A 1.10 1.09 -67.1 0 1 206.89 88.77
  Q 206.91 87.53 205.75 87.48"
/>
<path stroke="#804f11" vector-effect="non-scaling-stroke" d="
  M 205.75 87.48
  C 199.91 80.03 190.12 78.09 181.06 78.82"
/>
<path stroke="#d27a1d" vector-effect="non-scaling-stroke" d="
  M 181.06 78.82
  Q 176.68 78.45 172.77 80.82"
/>
<path stroke="#5b3211" vector-effect="non-scaling-stroke" d="
  M 181.06 78.82
  L 172.77 80.82"
/>
<path stroke="#5b3211" vector-effect="non-scaling-stroke" d="
  M 205.75 87.48
  Q 206.13 89.46 207.71 91.06"
/>
<path stroke="#5b3211" vector-effect="non-scaling-stroke" d="
  M 208.95 97.65
  L 198.21 97.41
  A 1.49 1.48 -8.2 0 1 196.82 96.37
  Q 194.60 89.15 186.73 88.79
  Q 182.18 88.58 178.52 89.83"
/>
<path stroke="#5b3211" vector-effect="non-scaling-stroke" d="
  M 200.54 109.18
  Q 201.93 110.62 203.77 110.99"
/>
<path stroke="#5b3211" vector-effect="non-scaling-stroke" d="
  M 202.37 139.53
  C 190.66 145.99 175.51 145.99 164.66 137.78"
/>
<path stroke="#5b3211" vector-effect="non-scaling-stroke" d="
  M 187.43 133.74
  Q 190.18 134.21 192.86 132.23"
/>
<path stroke="#5b3211" vector-effect="non-scaling-stroke" d="
  M 196.77 128.20
  C 199.10 120.69 191.25 118.06 185.69 117.02
  C 178.68 115.72 174.80 115.02 169.26 112.47"
/>
<path stroke="#804f11" vector-effect="non-scaling-stroke" d="
  M 320.72 85.35
  Q 320.20 85.23 319.98 85.37"
/>
<path stroke="#d27a1d" vector-effect="non-scaling-stroke" d="
  M 319.98 85.37
  Q 319.14 90.51 320.02 95.97"
/>
<path stroke="#804f11" vector-effect="non-scaling-stroke" d="
  M 320.02 95.97
  L 314.12 96.01"
/>
<path stroke="#d27a1d" vector-effect="non-scaling-stroke" d="
  M 314.12 96.01
  Q 313.08 95.59 312.89 97.00
  Q 312.37 100.76 313.41 105.71"
/>
<path stroke="#804f11" vector-effect="non-scaling-stroke" d="
  M 313.41 105.71
  L 319.52 105.61
  A 0.61 0.61 0.0 0 1 320.14 106.23
  Q 320.09 119.22 320.17 132.28
  C 320.18 134.31 320.82 136.09 321.45 137.96"
/>
<path stroke="#d27a1d" vector-effect="non-scaling-stroke" d="
  M 321.45 137.96
  Q 323.35 143.03 329.33 143.09
  Q 329.73 143.10 329.96 143.43
  Q 330.32 143.98 330.92 143.96
  Q 332.08 143.94 332.09 143.94
  Q 336.82 144.60 340.99 143.14"
/>
<path stroke="#804f11" vector-effect="non-scaling-stroke" d="
  M 340.99 143.14
  L 340.80 133.71"
/>
<path stroke="#d27a1d" vector-effect="non-scaling-stroke" d="
  M 340.80 133.71
  C 336.65 133.75 332.17 133.01 333.07 127.76
  Q 333.85 123.19 332.65 105.59"
/>
<path stroke="#804f11" vector-effect="non-scaling-stroke" d="
  M 332.65 105.59
  L 341.05 105.61
  A 0.33 0.33 0.0 0 0 341.38 105.28
  L 341.33 96.49
  Q 341.33 96.16 341.00 96.16
  L 333.20 96.12
  A 0.67 0.67 0.0 0 1 332.53 95.45
  L 332.53 85.97
  Q 332.53 85.43 331.99 85.42
  L 329.69 85.40"
/>
<path stroke="#d27a1d" vector-effect="non-scaling-stroke" d="
  M 329.69 85.40
  L 320.72 85.35"
/>
<path stroke="#5b3211" vector-effect="non-scaling-stroke" d="
  M 329.69 85.40
  L 320.72 85.35"
/>
<path stroke="#5b3211" vector-effect="non-scaling-stroke" d="
  M 332.65 105.59
  Q 332.07 120.18 332.38 128.53
  Q 332.63 135.20 340.80 133.71"
/>
<path stroke="#5b3211" vector-effect="non-scaling-stroke" d="
  M 340.99 143.14
  C 333.83 142.69 326.88 144.36 321.45 137.96"
/>
<path stroke="#5b3211" vector-effect="non-scaling-stroke" d="
  M 313.41 105.71
  L 314.12 96.01"
/>
<path stroke="#5b3211" vector-effect="non-scaling-stroke" d="
  M 320.02 95.97
  L 319.98 85.37"
/>
<path stroke="#d27a1d" vector-effect="non-scaling-stroke" d="
  M 224.98 140.16
  Q 225.47 142.39 230.35 142.76"
/>
<path stroke="#804f11" vector-effect="non-scaling-stroke" d="
  M 230.35 142.76
  L 231.91 143.17"
/>
<path stroke="#d27a1d" vector-effect="non-scaling-stroke" d="
  M 231.91 143.17
  C 232.99 143.68 235.51 143.79 236.17 144.33
  Q 236.55 144.64 237.04 144.64
  Q 241.55 144.63 245.99 143.98
  C 248.28 143.65 249.25 142.38 251.12 141.45
  Q 252.21 140.91 252.97 140.08"
/>
<path stroke="#804f11" vector-effect="non-scaling-stroke" d="
  M 252.97 140.08
  L 257.56 135.64"
/>
<path stroke="#d27a1d" vector-effect="non-scaling-stroke" d="
  M 257.56 135.64
  Q 259.81 133.76 259.67 131.23"
/>
<path stroke="#804f11" vector-effect="non-scaling-stroke" d="
  M 259.67 131.23
  Q 259.97 130.42 259.97 129.68
  Q 259.97 129.11 259.40 129.11
  L 248.99 129.03
  A 0.79 0.78 15.8 0 0 248.32 129.40
  L 246.60 132.12"
/>
<path stroke="#d27a1d" vector-effect="non-scaling-stroke" d="
  M 246.60 132.12
  L 241.29 134.67"
/>
<path stroke="#804f11" vector-effect="non-scaling-stroke" d="
  M 241.29 134.67
  Q 239.30 135.27 236.83 134.73"
/>
<path stroke="#d27a1d" vector-effect="non-scaling-stroke" d="
  M 236.83 134.73
  L 231.72 132.27"
/>
<path stroke="#804f11" vector-effect="non-scaling-stroke" d="
  M 231.72 132.27
  Q 229.59 130.92 228.92 128.45"
/>
<path stroke="#d27a1d" vector-effect="non-scaling-stroke" d="
  M 228.92 128.45
  Q 229.12 126.63 228.53 124.78
  Q 227.99 123.05 229.80 123.03
  L 260.46 122.58"
/>
<path stroke="#804f11" vector-effect="non-scaling-stroke" d="
  M 260.46 122.58
  Q 260.67 115.51 259.91 112.26
  Q 257.31 101.24 247.88 97.03
  C 236.56 91.99 222.86 96.40 217.88 108.13
  Q 217.60 108.79 217.36 109.11
  A 2.37 2.29 70.6 0 0 216.96 109.98
  C 215.56 116.02 214.97 124.51 217.48 130.31
  Q 218.33 132.27 219.13 134.26
  Q 220.00 136.43 224.98 140.16"
/>
<path stroke="#5b3211" vector-effect="non-scaling-stroke" d="
  M 260.46 122.58
  L 228.79 122.40
  Q 228.24 122.40 228.13 122.94
  Q 227.52 125.92 228.92 128.45"
/>
<path stroke="#5b3211" vector-effect="non-scaling-stroke" d="
  M 231.72 132.27
  Q 233.28 134.73 236.83 134.73"
/>
<path stroke="#5b3211" vector-effect="non-scaling-stroke" d="
  M 241.29 134.67
  Q 244.60 134.90 246.60 132.12"
/>
<path stroke="#5b3211" vector-effect="non-scaling-stroke" d="
  M 259.67 131.23
  L 257.56 135.64"
/>
<path stroke="#5b3211" vector-effect="non-scaling-stroke" d="
  M 252.97 140.08
  Q 243.23 145.47 231.91 143.17"
/>
<path stroke="#5b3211" vector-effect="non-scaling-stroke" d="
  M 230.35 142.76
  L 224.98 140.16"
/>
<path stroke="#d27a1d" vector-effect="non-scaling-stroke" d="
  M 270.27 135.62
  Q 271.20 138.00 273.00 139.49
  C 279.88 145.18 292.34 146.89 300.52 141.76
  C 303.45 139.92 305.66 139.43 306.95 135.74"
/>
<path stroke="#804f11" vector-effect="non-scaling-stroke" d="
  M 306.95 135.74
  Q 309.49 131.66 310.03 126.76
  Q 310.10 126.15 309.50 126.15
  L 298.51 126.15
  A 0.12 0.11 5.7 0 0 298.39 126.24
  Q 297.24 130.13 295.73 131.84"
/>
<path stroke="#d27a1d" vector-effect="non-scaling-stroke" d="
  M 295.73 131.84
  Q 289.60 135.36 284.00 132.83
  Q 283.24 132.49 282.83 131.77
  Q 282.26 130.76 280.87 130.34"
/>
<path stroke="#804f11" vector-effect="non-scaling-stroke" d="
  M 280.87 130.34
  Q 279.09 126.94 278.58 123.33"
/>
<path stroke="#d27a1d" vector-effect="non-scaling-stroke" d="
  M 278.58 123.33
  L 278.70 115.55"
/>
<path stroke="#804f11" vector-effect="non-scaling-stroke" d="
  M 278.70 115.55
  C 279.61 107.84 285.46 102.79 293.05 105.73"
/>
<path stroke="#d27a1d" vector-effect="non-scaling-stroke" d="
  M 293.05 105.73
  Q 294.43 107.76 296.61 108.86"
/>
<path stroke="#804f11" vector-effect="non-scaling-stroke" d="
  M 296.61 108.86
  Q 298.07 110.51 298.35 113.63"
/>
<path stroke="#d27a1d" vector-effect="non-scaling-stroke" d="
  M 298.35 113.63
  Q 303.90 114.39 309.44 113.57"
/>
<path stroke="#804f11" vector-effect="non-scaling-stroke" d="
  M 309.44 113.57
  Q 309.70 113.51 309.82 113.40
  Q 309.94 113.30 309.92 113.03
  C 308.58 99.81 296.58 93.30 284.50 95.36
  C 269.09 97.99 264.00 111.73 266.20 125.75
  Q 267.02 130.99 270.27 135.62"
/>
<path stroke="#5b3211" vector-effect="non-scaling-stroke" d="
  M 309.44 113.57
  L 298.35 113.63"
/>
<path stroke="#5b3211" vector-effect="non-scaling-stroke" d="
  M 296.61 108.86
  Q 295.74 106.60 293.05 105.73"
/>
<path stroke="#5b3211" vector-effect="non-scaling-stroke" d="
  M 278.70 115.55
  Q 277.88 119.28 278.58 123.33"
/>
<path stroke="#5b3211" vector-effect="non-scaling-stroke" d="
  M 280.87 130.34
  Q 287.81 138.40 295.73 131.84"
/>
<path stroke="#5b3211" vector-effect="non-scaling-stroke" d="
  M 306.95 135.74
  Q 303.00 140.60 298.26 142.33
  C 288.66 145.84 277.35 143.89 270.27 135.62"
/>
<path stroke="#d27a1d" vector-effect="non-scaling-stroke" d="
  M 387.65 144.02
  Q 392.13 145.77 396.24 143.86"
/>
<path stroke="#804f11" vector-effect="non-scaling-stroke" d="
  M 396.24 143.86
  C 413.64 140.75 417.90 123.67 413.14 108.76
  Q 412.24 105.96 408.55 101.49"
/>
<path stroke="#d27a1d" vector-effect="non-scaling-stroke" d="
  M 408.55 101.49
  Q 406.84 98.38 403.59 97.95"
/>
<path stroke="#804f11" vector-effect="non-scaling-stroke" d="
  M 403.59 97.95
  Q 400.98 96.58 400.25 96.38
  C 391.99 94.04 381.02 94.72 374.91 101.67
  C 369.97 107.30 368.60 112.23 368.54 119.99
  Q 368.42 133.80 378.99 141.10
  Q 380.99 142.48 387.65 144.02"
/>
<path stroke="#5b3211" vector-effect="non-scaling-stroke" d="
  M 403.59 97.95
  L 408.55 101.49"
/>
<path stroke="#5b3211" vector-effect="non-scaling-stroke" d="
  M 396.24 143.86
  L 387.65 144.02"
/>
<path stroke="#d27a1d" vector-effect="non-scaling-stroke" d="
  M 443.48 96.01
  Q 440.55 96.02 439.06 98.38"
/>
<path stroke="#804f11" vector-effect="non-scaling-stroke" d="
  M 439.06 98.38
  Q 436.38 100.64 434.98 103.53
  A 0.61 0.61 0.0 0 1 433.83 103.26
  L 433.89 96.76
  A 0.63 0.63 0.0 0 0 433.26 96.13
  L 422.42 96.10
  A 0.61 0.61 0.0 0 0 421.81 96.71
  L 421.66 142.32
  Q 421.66 143.24 422.57 143.24
  L 433.75 143.24
  Q 434.27 143.24 434.27 142.72
  Q 434.34 128.99 434.33 115.25
  C 434.33 109.74 438.43 105.90 443.77 105.69
  C 449.15 105.47 452.79 108.80 452.70 114.50
  Q 452.48 128.58 452.53 142.74
  Q 452.53 143.23 453.03 143.23
  L 464.73 143.24
  Q 465.20 143.24 465.19 142.77
  Q 465.07 126.63 465.12 110.50
  Q 465.13 107.04 463.36 103.26
  Q 461.94 100.21 459.55 98.41
  C 455.06 95.03 448.90 94.76 443.48 96.01"
/>
<path stroke="#5b3211" vector-effect="non-scaling-stroke" d="
  M 439.06 98.38
  L 443.48 96.01"
/>
<path stroke="#804f11" vector-effect="non-scaling-stroke" d="
  M 361.47 96.39
  A 0.26 0.26 0.0 0 0 361.21 96.13
  L 349.21 96.13
  A 0.26 0.26 0.0 0 0 348.95 96.39
  L 348.95 142.99
  A 0.26 0.26 0.0 0 0 349.21 143.25
  L 361.21 143.25
  A 0.26 0.26 0.0 0 0 361.47 142.99
  L 361.47 96.39"
/>
<path stroke="#aeafaf" vector-effect="non-scaling-stroke" d="
  M 471.12 64.77
  A 3.78 3.78 0.0 0 0 467.34 60.99
  A 3.78 3.78 0.0 0 0 463.56 64.77
  A 3.78 3.78 0.0 0 0 467.34 68.55
  A 3.78 3.78 0.0 0 0 471.12 64.77"
/>
<path stroke="#aeafaf" vector-effect="non-scaling-stroke" d="
  M 484.56 64.78
  A 3.79 3.79 0.0 0 0 480.77 60.99
  A 3.79 3.79 0.0 0 0 476.98 64.78
  A 3.79 3.79 0.0 0 0 480.77 68.57
  A 3.79 3.79 0.0 0 0 484.56 64.78"
/>
<path stroke="#848382" vector-effect="non-scaling-stroke" d="
  M 89.59 90.20
  L 89.59 105.46
  A 0.37 0.37 0.0 0 0 89.96 105.83
  L 101.03 105.83
  A 8.50 7.07 0.0 0 0 109.53 98.76
  L 109.53 96.90
  A 8.50 7.07 -0.0 0 0 101.03 89.83
  L 89.96 89.83
  A 0.37 0.37 0.0 0 0 89.59 90.20"
/>
<path stroke="#848382" vector-effect="non-scaling-stroke" d="
  M 89.47 115.78
  L 89.55 132.48
  A 0.78 0.78 0.0 0 0 90.34 133.26
  L 101.70 133.20
  A 10.50 8.05 -0.3 0 0 112.16 125.09
  L 112.14 122.93
  A 10.50 8.05 -0.3 0 0 101.60 114.94
  L 90.24 115.00
  A 0.78 0.78 0.0 0 0 89.47 115.78"
/>
<path stroke="#5b3211" vector-effect="non-scaling-stroke" d="
  M 247.08 109.36
  Q 245.97 106.41 243.11 105.43"
/>
<path stroke="#804f11" vector-effect="non-scaling-stroke" d="
  M 243.11 105.43
  Q 242.55 104.88 241.50 104.73
  Q 229.91 102.99 228.30 114.23
  A 0.57 0.57 0.0 0 0 228.86 114.88
  L 247.75 114.92
  Q 248.23 114.92 248.28 114.45
  Q 248.62 111.53 247.08 109.36"
/>
<path stroke="#d27a1d" vector-effect="non-scaling-stroke" d="
  M 243.11 105.43
  L 247.08 109.36"
/>
<path stroke="#5b3211" vector-effect="non-scaling-stroke" d="
  M 381.48 115.81
  Q 380.54 119.99 381.49 124.20"
/>
<path stroke="#804f11" vector-effect="non-scaling-stroke" d="
  M 381.49 124.20
  Q 381.98 125.97 382.54 127.70
  Q 384.13 132.64 388.66 134.28"
/>
<path stroke="#5b3211" vector-effect="non-scaling-stroke" d="
  M 388.66 134.28
  Q 394.72 135.98 398.03 132.21"
/>
<path stroke="#804f11" vector-effect="non-scaling-stroke" d="
  M 398.03 132.21
  Q 399.57 130.57 400.47 128.49"
/>
<path stroke="#5b3211" vector-effect="non-scaling-stroke" d="
  M 400.47 128.49
  Q 401.43 127.42 401.50 125.66"
/>
<path stroke="#804f11" vector-effect="non-scaling-stroke" d="
  M 401.50 125.66
  Q 401.49 125.63 401.47 125.59"
/>
<path stroke="#5b3211" vector-effect="non-scaling-stroke" d="
  M 401.47 125.59
  C 402.84 120.63 402.73 114.05 399.87 109.52"
/>
<path stroke="#804f11" vector-effect="non-scaling-stroke" d="
  M 399.87 109.52
  C 397.24 105.32 391.22 102.60 386.83 106.09
  C 384.94 107.59 383.46 108.59 382.65 110.98
  Q 381.87 113.30 381.48 115.81"
/>
<path stroke="#d27a1d" vector-effect="non-scaling-stroke" d="
  M 399.87 109.52
  Q 402.47 117.40 401.47 125.59"
/>
<path stroke="#d27a1d" vector-effect="non-scaling-stroke" d="
  M 401.50 125.66
  Q 400.37 126.67 400.47 128.49"
/>
<path stroke="#d27a1d" vector-effect="non-scaling-stroke" d="
  M 398.03 132.21
  Q 393.74 134.61 388.66 134.28"
/>
<path stroke="#d27a1d" vector-effect="non-scaling-stroke" d="
  M 381.49 124.20
  L 381.48 115.81"
/>
<path stroke="#848382" vector-effect="non-scaling-stroke" d="
  M 163.1582 218.8200
  A 4.70 3.33 89.9 0 0 166.4800 214.1142
  A 4.70 3.33 89.9 0 0 163.1418 209.4200
  A 4.70 3.33 89.9 0 0 159.8200 214.1258
  A 4.70 3.33 89.9 0 0 163.1582 218.8200"
/>
<path stroke="#848382" vector-effect="non-scaling-stroke" d="
  M 198.4264 218.8200
  A 4.70 3.31 89.8 0 0 201.7200 214.1084
  A 4.70 3.31 89.8 0 0 198.3936 209.4200
  A 4.70 3.31 89.8 0 0 195.1000 214.1316
  A 4.70 3.31 89.8 0 0 198.4264 218.8200"
/>
<path stroke="#848382" vector-effect="non-scaling-stroke" d="
  M 338.5882 218.8400
  A 4.71 3.32 89.9 0 0 341.9000 214.1242
  A 4.71 3.32 89.9 0 0 338.5718 209.4200
  A 4.71 3.32 89.9 0 0 335.2600 214.1358
  A 4.71 3.32 89.9 0 0 338.5882 218.8400"
/>
<path stroke="#848382" vector-effect="non-scaling-stroke" d="
  M 145.0200 218.9700
  A 4.83 3.33 90.0 0 0 148.3500 214.1400
  A 4.83 3.33 90.0 0 0 145.0200 209.3100
  A 4.83 3.33 90.0 0 0 141.6900 214.1400
  A 4.83 3.33 90.0 0 0 145.0200 218.9700"
/>
<path stroke="#848382" vector-effect="non-scaling-stroke" d="
  M 180.7331 218.9900
  A 4.85 3.34 90.2 0 0 184.0900 214.1517
  A 4.85 3.34 90.2 0 0 180.7669 209.2900
  A 4.85 3.34 90.2 0 0 177.4100 214.1283
  A 4.85 3.34 90.2 0 0 180.7331 218.9900"
/>
<path stroke="#848382" vector-effect="non-scaling-stroke" d="
  M 353.03 212.58
  L 359.13 212.44
  A 0.17 0.17 0.0 0 0 359.29 212.26
  L 359.29 212.19
  A 3.09 2.98 -1.4 0 0 356.13 209.29
  L 355.87 209.29
  A 3.09 2.98 -1.4 0 0 352.85 212.35
  L 352.86 212.42
  A 0.17 0.17 0.0 0 0 353.03 212.58"
/>
<path stroke="#848382" vector-effect="non-scaling-stroke" d="
  M 392.40 212.50
  L 398.46 212.54
  A 0.17 0.17 0.0 0 0 398.63 212.37
  L 398.63 212.31
  A 3.08 2.99 0.4 0 0 395.57 209.30
  L 395.33 209.30
  A 3.08 2.99 0.4 0 0 392.23 212.27
  L 392.23 212.33
  A 0.17 0.17 0.0 0 0 392.40 212.50"
/>
</g>
<path fill="#080705" d="
  M 0.00 0.00
  L 573.00 0.00
  L 573.00 282.00
  L 0.00 282.00
  L 0.00 0.00
  Z
  M 442.73 57.14
  Q 300.45 57.12 158.25 57.14
  Q 154.28 57.14 152.37 57.89
  C 146.92 60.02 146.39 64.15 146.36 70.01
  Q 146.17 100.80 146.12 131.51
  L 146.24 136.46
  Q 146.37 149.20 146.28 161.97
  C 146.25 167.23 146.64 171.33 151.21 173.84
  Q 153.72 175.22 160.02 175.22
  Q 314.14 175.23 468.25 175.28
  Q 475.25 175.28 478.13 170.11
  Q 479.49 167.66 479.49 162.65
  Q 479.49 124.08 479.51 85.64
  Q 493.22 82.07 499.60 71.12
  C 504.91 61.99 505.35 50.13 500.12 40.88
  C 484.12 12.61 441.44 24.72 442.73 57.14
  Z
  M 119.47 139.23
  Q 121.81 138.26 122.54 136.27
  Q 123.97 135.10 124.80 133.26
  Q 127.48 127.38 126.14 122.20
  C 124.03 114.88 119.94 111.23 112.52 109.85
  Q 111.74 109.71 112.49 109.45
  Q 115.88 108.28 118.46 105.99
  Q 121.84 103.78 122.59 100.06
  Q 122.96 99.41 123.01 98.58
  Q 123.97 95.34 123.05 92.15
  L 121.17 87.27
  Q 119.66 84.35 116.38 82.58
  Q 110.66 79.66 107.00 79.61
  Q 91.54 79.39 76.28 79.53
  A 0.70 0.70 0.0 0 0 75.59 80.23
  L 75.60 142.63
  A 0.76 0.76 0.0 0 0 76.36 143.39
  Q 91.70 143.54 106.88 143.37
  Q 113.61 143.30 119.47 139.23
  Z
  M 261.61 202.08
  A 2.24 2.24 0.0 0 0 259.37 199.84
  A 2.24 2.24 0.0 0 0 257.13 202.08
  A 2.24 2.24 0.0 0 0 259.37 204.32
  A 2.24 2.24 0.0 0 0 261.61 202.08
  Z
  M 309.89 202.09
  A 2.24 2.24 0.0 0 0 307.65 199.85
  A 2.24 2.24 0.0 0 0 305.41 202.09
  A 2.24 2.24 0.0 0 0 307.65 204.33
  A 2.24 2.24 0.0 0 0 309.89 202.09
  Z
  M 432.55 226.48
  L 435.93 226.48
  Q 436.18 226.48 436.33 226.27
  C 441.40 218.96 441.87 208.17 436.32 200.95
  Q 436.18 200.75 435.93 200.75
  L 432.48 200.75
  Q 432.30 200.75 432.39 200.91
  Q 439.28 213.59 432.38 226.20
  Q 432.23 226.48 432.55 226.48
  Z
  M 130.05 213.43
  A 0.31 0.31 0.0 0 1 129.48 213.60
  L 120.96 201.18
  A 0.31 0.31 0.0 0 0 120.70 201.04
  L 117.33 201.08
  A 0.31 0.31 0.0 0 0 117.02 201.39
  L 117.02 221.49
  A 0.31 0.31 0.0 0 0 117.32 221.80
  L 121.11 221.86
  A 0.31 0.31 0.0 0 0 121.43 221.55
  L 121.39 209.47
  A 0.31 0.31 0.0 0 1 121.96 209.30
  L 130.46 221.66
  A 0.31 0.31 0.0 0 0 130.71 221.79
  L 134.08 221.89
  A 0.31 0.31 0.0 0 0 134.40 221.58
  L 134.41 201.38
  A 0.31 0.31 0.0 0 0 134.10 201.07
  L 130.35 201.10
  A 0.31 0.31 0.0 0 0 130.04 201.41
  L 130.05 213.43
  Z
  M 159.96 207.95
  L 159.96 201.52
  Q 159.96 201.07 159.52 201.07
  L 156.02 201.06
  Q 155.61 201.06 155.61 201.48
  L 155.61 221.19
  Q 155.61 221.78 156.20 221.80
  L 159.33 221.90
  A 0.57 0.57 0.0 0 0 159.92 221.36
  L 159.96 220.44
  Q 159.99 219.82 160.44 220.24
  Q 163.67 223.30 166.99 221.63
  C 171.94 219.14 172.15 210.06 167.68 207.03
  Q 164.11 204.61 160.31 208.11
  Q 159.96 208.43 159.96 207.95
  Z
  M 201.54 207.76
  A 0.37 0.37 0.0 0 1 200.83 207.89
  Q 200.53 207.10 199.20 206.68
  C 189.35 203.59 187.79 219.30 195.27 221.91
  Q 198.51 223.04 201.26 220.07
  Q 201.79 219.49 201.67 220.27
  L 201.52 221.25
  A 0.49 0.49 0.0 0 0 202.00 221.81
  L 205.24 221.86
  Q 205.84 221.86 205.84 221.26
  L 205.83 201.31
  A 0.26 0.25 -1.1 0 0 205.56 201.06
  L 201.83 201.08
  Q 201.57 201.08 201.57 201.34
  L 201.54 207.76
  Z
  M 335.41 207.97
  L 335.45 201.76
  Q 335.45 201.07 334.76 201.08
  L 331.74 201.09
  Q 331.07 201.09 331.07 201.76
  L 331.04 221.16
  Q 331.04 221.78 331.66 221.80
  L 334.68 221.88
  Q 335.27 221.90 335.29 221.31
  L 335.31 220.24
  Q 335.33 219.29 335.89 220.06
  C 338.30 223.43 343.52 222.47 345.19 218.98
  C 347.21 214.74 346.76 207.61 341.34 206.25
  Q 338.24 205.48 335.84 208.14
  Q 335.40 208.63 335.41 207.97
  Z
  M 313.75 206.27
  L 312.68 206.29
  Q 312.16 206.29 312.16 206.82
  L 312.17 208.90
  A 0.61 0.61 0.0 0 0 312.78 209.51
  L 313.74 209.50
  Q 314.28 209.50 314.28 210.04
  C 314.26 215.00 312.41 223.88 321.11 221.92
  Q 321.74 221.78 321.62 221.15
  L 321.30 219.31
  Q 321.19 218.70 320.57 218.64
  L 319.31 218.53
  Q 318.66 218.47 318.65 217.81
  L 318.61 210.19
  Q 318.61 209.48 319.31 209.49
  L 320.86 209.51
  Q 321.50 209.52 321.50 208.89
  L 321.50 207.00
  Q 321.50 206.25 320.75 206.26
  L 319.08 206.29
  Q 318.61 206.29 318.61 205.83
  L 318.63 203.34
  Q 318.63 202.55 317.84 202.55
  L 315.11 202.54
  Q 314.25 202.54 314.26 203.39
  L 314.26 205.75
  Q 314.26 206.27 313.75 206.27
  Z
  M 366.72 206.29
  L 365.72 206.27
  Q 365.18 206.25 365.17 206.78
  L 365.12 209.14
  A 0.38 0.38 0.0 0 0 365.51 209.53
  L 366.75 209.50
  Q 367.24 209.48 367.25 209.98
  C 367.29 214.85 365.37 224.05 374.19 221.88
  Q 374.86 221.71 374.73 221.03
  L 374.40 219.24
  Q 374.29 218.67 373.71 218.64
  L 372.48 218.56
  Q 371.70 218.51 371.70 217.73
  L 371.67 210.03
  A 0.54 0.54 0.0 0 1 372.22 209.49
  L 374.03 209.53
  Q 374.61 209.54 374.60 208.96
  L 374.57 206.91
  Q 374.56 206.26 373.91 206.26
  L 372.23 206.28
  Q 371.68 206.29 371.68 205.73
  L 371.69 203.36
  Q 371.69 202.53 370.86 202.53
  L 368.11 202.54
  Q 367.25 202.54 367.25 203.39
  L 367.25 205.77
  Q 367.25 206.30 366.72 206.29
  Z
  M 378.43 209.97
  C 378.40 214.73 376.61 224.34 385.38 221.77
  Q 385.83 221.64 385.75 221.18
  L 385.45 219.29
  Q 385.35 218.73 384.78 218.66
  L 383.33 218.49
  Q 382.74 218.43 382.74 217.83
  L 382.72 210.01
  Q 382.71 209.48 383.24 209.49
  L 385.04 209.53
  Q 385.62 209.54 385.62 208.96
  L 385.63 206.88
  Q 385.64 206.25 385.00 206.26
  L 383.26 206.29
  Q 382.73 206.30 382.73 205.76
  L 382.73 203.39
  Q 382.73 202.56 381.89 202.55
  L 379.19 202.54
  Q 378.41 202.53 378.42 203.31
  L 378.46 205.78
  Q 378.47 206.29 377.97 206.28
  L 376.76 206.28
  Q 376.30 206.28 376.30 206.74
  L 376.27 209.02
  Q 376.27 209.52 376.77 209.52
  L 377.95 209.49
  Q 378.43 209.49 378.43 209.97
  Z
  M 152.6246 213.1102
  A 6.93 6.93 0.0 0 0 145.6584 206.2165
  L 144.2984 206.2237
  A 6.93 6.93 0.0 0 0 137.4048 213.1899
  L 137.4154 215.2298
  A 6.93 6.93 0.0 0 0 144.3816 222.1235
  L 145.7416 222.1163
  A 6.93 6.93 0.0 0 0 152.6352 215.1501
  L 152.6246 213.1102
  Z
  M 188.3388 213.0505
  A 6.91 6.91 0.0 0 0 181.3568 206.2132
  L 179.9769 206.2277
  A 6.91 6.91 0.0 0 0 173.1396 213.2096
  L 173.1612 215.2695
  A 6.91 6.91 0.0 0 0 180.1432 222.1068
  L 181.5231 222.0923
  A 6.91 6.91 0.0 0 0 188.3604 215.1104
  L 188.3388 213.0505
  Z
  M 216.43 216.85
  Q 216.08 218.10 215.74 216.85
  L 212.98 206.92
  Q 212.80 206.29 212.16 206.29
  L 208.80 206.27
  Q 208.23 206.27 208.41 206.81
  Q 210.91 214.10 213.38 221.04
  C 214.24 223.46 213.08 224.78 210.53 224.18
  Q 210.22 224.10 210.15 224.41
  L 209.49 227.28
  A 0.32 0.32 0.0 0 0 209.72 227.66
  Q 216.02 229.24 217.92 223.71
  Q 220.80 215.37 223.78 206.96
  A 0.52 0.52 0.0 0 0 223.29 206.27
  L 220.02 206.28
  Q 219.39 206.28 219.23 206.88
  L 216.43 216.85
  Z
  M 250.70 206.28
  A 0.30 0.30 0.0 0 0 250.41 206.52
  L 248.37 216.04
  A 0.30 0.30 0.0 0 1 247.78 216.05
  L 245.53 206.49
  A 0.30 0.30 0.0 0 0 245.24 206.26
  L 241.34 206.29
  A 0.30 0.30 0.0 0 0 241.05 206.52
  L 238.82 215.94
  A 0.30 0.30 0.0 0 1 238.24 215.94
  L 236.16 206.51
  A 0.30 0.30 0.0 0 0 235.87 206.27
  L 232.05 206.29
  A 0.30 0.30 0.0 0 0 231.76 206.67
  L 235.85 221.64
  A 0.30 0.30 0.0 0 0 236.14 221.86
  L 240.37 221.80
  A 0.30 0.30 0.0 0 0 240.66 221.58
  L 242.98 212.74
  A 0.30 0.30 0.0 0 1 243.56 212.74
  L 245.98 221.62
  A 0.30 0.30 0.0 0 0 246.27 221.84
  L 250.46 221.84
  A 0.30 0.30 0.0 0 0 250.75 221.62
  L 254.75 206.64
  A 0.30 0.30 0.0 0 0 254.46 206.26
  L 250.70 206.28
  Z
  M 261.51 206.57
  A 0.30 0.30 0.0 0 0 261.21 206.27
  L 257.51 206.27
  A 0.30 0.30 0.0 0 0 257.21 206.57
  L 257.21 221.57
  A 0.30 0.30 0.0 0 0 257.51 221.87
  L 261.21 221.87
  A 0.30 0.30 0.0 0 0 261.51 221.57
  L 261.51 206.57
  Z
  M 269.03 207.92
  Q 269.02 207.53 269.10 206.94
  Q 269.19 206.29 268.53 206.29
  L 265.47 206.27
  Q 264.95 206.26 264.95 206.78
  L 264.95 221.52
  Q 264.95 221.84 265.27 221.84
  L 268.98 221.83
  A 0.31 0.31 0.0 0 0 269.29 221.52
  L 269.31 212.43
  A 2.72 2.72 0.0 0 1 272.07 209.72
  L 272.86 209.73
  A 2.11 2.11 0.0 0 1 274.95 211.83
  L 275.00 221.54
  Q 275.00 221.84 275.30 221.84
  L 278.99 221.83
  Q 279.26 221.83 279.27 221.56
  C 279.45 218.54 280.10 210.50 278.18 208.00
  C 276.32 205.58 271.29 205.36 269.75 208.10
  Q 269.07 209.30 269.03 207.92
  Z
  M 291.63 217.88
  Q 291.47 218.57 290.48 218.90
  Q 287.81 219.78 286.53 217.74
  Q 286.18 217.19 285.52 217.21
  L 282.57 217.30
  Q 281.99 217.32 282.15 217.88
  C 284.36 225.88 299.97 221.69 295.33 214.83
  C 293.54 212.17 289.04 213.34 287.25 211.67
  Q 286.67 211.14 286.87 210.42
  C 287.47 208.24 290.68 209.11 291.67 210.59
  Q 291.98 211.06 292.55 211.01
  L 295.19 210.77
  Q 295.76 210.72 295.61 210.17
  C 294.00 204.06 281.86 205.09 282.41 211.15
  C 282.78 215.25 287.51 215.54 290.58 216.21
  A 1.39 1.38 -77.2 0 1 291.63 217.88
  Z
  M 309.76 206.57
  A 0.30 0.30 0.0 0 0 309.46 206.27
  L 305.80 206.27
  A 0.30 0.30 0.0 0 0 305.50 206.57
  L 305.50 221.55
  A 0.30 0.30 0.0 0 0 305.80 221.85
  L 309.46 221.85
  A 0.30 0.30 0.0 0 0 309.76 221.55
  L 309.76 206.57
  Z
  M 353.77 215.22
  L 362.98 215.23
  Q 363.41 215.24 363.42 214.80
  C 363.76 203.13 348.97 203.63 348.58 213.26
  Q 348.18 223.16 358.27 222.03
  Q 361.78 221.64 363.24 218.08
  Q 363.52 217.40 362.79 217.36
  L 360.02 217.20
  Q 359.44 217.16 359.11 217.64
  Q 357.82 219.53 355.45 218.86
  Q 353.78 218.39 353.09 216.80
  L 352.95 216.48
  Q 352.40 215.22 353.77 215.22
  Z
  M 392.79 215.23
  L 402.22 215.23
  Q 402.58 215.23 402.63 214.87
  C 403.78 206.83 394.05 202.69 389.43 209.07
  C 386.78 212.73 387.28 220.02 392.49 221.71
  C 396.26 222.93 400.91 222.06 402.63 218.00
  A 0.46 0.46 0.0 0 0 402.23 217.37
  L 399.27 217.19
  Q 398.61 217.15 398.26 217.72
  C 396.75 220.25 392.10 219.03 392.30 215.68
  Q 392.33 215.23 392.79 215.23
  Z
  M 409.76 208.24
  L 409.79 206.79
  Q 409.80 206.27 409.29 206.27
  L 406.00 206.27
  Q 405.53 206.27 405.53 206.75
  L 405.53 221.54
  Q 405.53 221.85 405.84 221.85
  L 409.61 221.85
  A 0.33 0.33 0.0 0 0 409.94 221.53
  C 409.98 218.32 408.22 208.56 414.25 209.99
  A 0.53 0.52 15.0 0 0 414.88 209.63
  L 415.67 206.88
  Q 415.77 206.51 415.41 206.40
  Q 411.79 205.24 410.22 208.36
  Q 409.73 209.34 409.76 208.24
  Z
  M 429.42 208.81
  A 2.42 2.42 0.0 0 0 427.00 206.39
  A 2.42 2.42 0.0 0 0 424.58 208.81
  A 2.42 2.42 0.0 0 0 427.00 211.23
  A 2.42 2.42 0.0 0 0 429.42 208.81
  Z
  M 429.41 219.74
  A 2.41 2.41 0.0 0 0 427.00 217.33
  A 2.41 2.41 0.0 0 0 424.59 219.74
  A 2.41 2.41 0.0 0 0 427.00 222.15
  A 2.41 2.41 0.0 0 0 429.41 219.74
  Z"
/>
<path fill="#ffffff" d="
  M 479.51 85.64
  C 460.73 88.74 443.91 76.38 442.73 57.14
  C 441.44 24.72 484.12 12.61 500.12 40.88
  C 505.35 50.13 504.91 61.99 499.60 71.12
  Q 493.22 82.07 479.51 85.64
  Z
  M 499.94 55.91
  A 26.09 26.09 0.0 0 0 473.85 29.82
  A 26.09 26.09 0.0 0 0 447.76 55.91
  A 26.09 26.09 0.0 0 0 473.85 82.00
  A 26.09 26.09 0.0 0 0 499.94 55.91
  Z"
/>
<path fill="#5c5e5f" d="
  M 499.94 55.91
  A 26.09 26.09 0.0 0 1 473.85 82.00
  A 26.09 26.09 0.0 0 1 447.76 55.91
  A 26.09 26.09 0.0 0 1 473.85 29.82
  A 26.09 26.09 0.0 0 1 499.94 55.91
  Z
  M 465.25 49.50
  Q 464.81 50.86 466.25 50.87
  L 483.26 50.90
  Q 483.49 50.90 483.42 50.68
  L 480.97 42.33
  A 0.31 0.30 -11.1 0 0 480.64 42.11
  C 476.93 42.47 472.75 43.94 469.08 42.55
  Q 467.66 42.02 467.19 43.46
  L 465.25 49.50
  Z
  M 458.85 56.65
  Q 456.09 57.71 459.04 57.70
  L 490.20 57.70
  A 0.35 0.35 0.0 0 0 490.33 57.02
  Q 474.67 50.63 458.85 56.65
  Z
  M 475.46 64.71
  C 475.71 70.36 482.99 72.25 485.54 67.25
  C 488.62 61.20 480.07 56.25 476.12 62.09
  Q 475.86 62.49 475.38 62.50
  L 472.76 62.57
  A 0.77 0.75 71.8 0 1 472.09 62.22
  C 468.68 56.98 460.55 60.28 462.01 65.75
  C 463.68 72.03 472.22 71.47 472.66 64.68
  Q 472.70 64.15 473.23 64.12
  L 474.72 64.04
  A 0.70 0.70 0.0 0 1 475.46 64.71
  Z"
/>
<path fill="#ffffff" d="
  M 465.25 49.50
  L 467.19 43.46
  Q 467.66 42.02 469.08 42.55
  C 472.75 43.94 476.93 42.47 480.64 42.11
  A 0.31 0.30 -11.1 0 1 480.97 42.33
  L 483.42 50.68
  Q 483.49 50.90 483.26 50.90
  L 466.25 50.87
  Q 464.81 50.86 465.25 49.50
  Z"
/>
<path fill="#ffffff" d="
  M 458.85 56.65
  Q 474.67 50.63 490.33 57.02
  A 0.35 0.35 0.0 0 1 490.20 57.70
  L 459.04 57.70
  Q 456.09 57.71 458.85 56.65
  Z"
/>
<path fill="#f7971d" d="
  M 442.73 57.14
  C 443.91 76.38 460.73 88.74 479.51 85.64
  Q 479.49 124.08 479.49 162.65
  Q 479.49 167.66 478.13 170.11
  Q 475.25 175.28 468.25 175.28
  Q 314.14 175.23 160.02 175.22
  Q 153.72 175.22 151.21 173.84
  C 146.64 171.33 146.25 167.23 146.28 161.97
  Q 146.37 149.20 146.24 136.46
  Q 146.90 133.73 146.12 131.51
  Q 146.17 100.80 146.36 70.01
  C 146.39 64.15 146.92 60.02 152.37 57.89
  Q 154.28 57.14 158.25 57.14
  Q 300.45 57.12 442.73 57.14
  Z
  M 350.93 78.80
  C 342.34 86.74 357.44 97.10 361.85 85.39
  C 362.24 83.25 361.18 77.47 357.81 78.26
  L 357.22 78.00
  Q 357.06 77.33 356.26 77.24
  Q 353.06 76.86 350.93 78.80
  Z
  M 172.77 80.82
  C 164.06 84.32 159.96 91.57 160.94 100.75
  C 161.52 106.14 164.52 109.90 169.26 112.47
  Q 172.05 115.11 176.00 115.86
  Q 185.43 117.64 190.54 119.23
  Q 197.26 121.33 196.77 128.20
  Q 195.33 130.99 192.86 132.23
  L 187.43 133.74
  C 181.07 134.58 173.58 132.72 171.83 125.73
  Q 171.71 125.25 171.22 125.25
  L 159.79 125.27
  A 0.58 0.57 -7.0 0 0 159.23 125.98
  C 159.84 128.31 159.92 130.79 161.07 132.85
  Q 162.61 135.61 164.66 137.78
  Q 167.47 141.42 172.39 143.04
  Q 172.77 143.16 173.17 143.10
  Q 173.65 143.02 173.93 143.34
  Q 174.19 143.63 174.56 143.71
  Q 184.13 145.70 193.75 143.89
  Q 198.86 142.93 202.37 139.53
  Q 213.07 131.04 208.87 117.62
  C 207.98 114.75 205.87 112.98 203.77 110.99
  Q 202.77 109.17 200.54 109.18
  Q 194.14 106.95 187.41 105.59
  C 181.24 104.33 171.33 102.52 174.39 93.92
  Q 175.15 91.76 178.52 89.83
  C 180.53 90.44 182.22 89.26 183.99 89.28
  C 189.40 89.32 195.18 91.03 196.19 97.15
  A 1.03 1.03 0.0 0 0 197.23 98.01
  L 208.95 97.65
  L 207.71 91.06
  Q 207.86 90.25 207.21 89.57
  A 1.10 1.09 -67.1 0 1 206.89 88.77
  Q 206.91 87.53 205.75 87.48
  C 199.91 80.03 190.12 78.09 181.06 78.82
  Q 176.68 78.45 172.77 80.82
  Z
  M 320.72 85.35
  Q 320.20 85.23 319.98 85.37
  Q 319.14 90.51 320.02 95.97
  L 314.12 96.01
  Q 313.08 95.59 312.89 97.00
  Q 312.37 100.76 313.41 105.71
  L 319.52 105.61
  A 0.61 0.61 0.0 0 1 320.14 106.23
  Q 320.09 119.22 320.17 132.28
  C 320.18 134.31 320.82 136.09 321.45 137.96
  Q 323.35 143.03 329.33 143.09
  Q 329.73 143.10 329.96 143.43
  Q 330.32 143.98 330.92 143.96
  Q 332.08 143.94 332.09 143.94
  Q 336.82 144.60 340.99 143.14
  L 340.80 133.71
  C 336.65 133.75 332.17 133.01 333.07 127.76
  Q 333.85 123.19 332.65 105.59
  L 341.05 105.61
  A 0.33 0.33 0.0 0 0 341.38 105.28
  L 341.33 96.49
  Q 341.33 96.16 341.00 96.16
  L 333.20 96.12
  A 0.67 0.67 0.0 0 1 332.53 95.45
  L 332.53 85.97
  Q 332.53 85.43 331.99 85.42
  L 329.69 85.40
  L 320.72 85.35
  Z
  M 224.98 140.16
  Q 225.47 142.39 230.35 142.76
  L 231.91 143.17
  C 232.99 143.68 235.51 143.79 236.17 144.33
  Q 236.55 144.64 237.04 144.64
  Q 241.55 144.63 245.99 143.98
  C 248.28 143.65 249.25 142.38 251.12 141.45
  Q 252.21 140.91 252.97 140.08
  L 257.56 135.64
  Q 259.81 133.76 259.67 131.23
  Q 259.97 130.42 259.97 129.68
  Q 259.97 129.11 259.40 129.11
  L 248.99 129.03
  A 0.79 0.78 15.8 0 0 248.32 129.40
  L 246.60 132.12
  L 241.29 134.67
  Q 239.30 135.27 236.83 134.73
  L 231.72 132.27
  Q 229.59 130.92 228.92 128.45
  Q 229.12 126.63 228.53 124.78
  Q 227.99 123.05 229.80 123.03
  L 260.46 122.58
  Q 260.67 115.51 259.91 112.26
  Q 257.31 101.24 247.88 97.03
  C 236.56 91.99 222.86 96.40 217.88 108.13
  Q 217.60 108.79 217.36 109.11
  A 2.37 2.29 70.6 0 0 216.96 109.98
  C 215.56 116.02 214.97 124.51 217.48 130.31
  Q 218.33 132.27 219.13 134.26
  Q 220.00 136.43 224.98 140.16
  Z
  M 270.27 135.62
  Q 271.20 138.00 273.00 139.49
  C 279.88 145.18 292.34 146.89 300.52 141.76
  C 303.45 139.92 305.66 139.43 306.95 135.74
  Q 309.49 131.66 310.03 126.76
  Q 310.10 126.15 309.50 126.15
  L 298.51 126.15
  A 0.12 0.11 5.7 0 0 298.39 126.24
  Q 297.24 130.13 295.73 131.84
  Q 289.60 135.36 284.00 132.83
  Q 283.24 132.49 282.83 131.77
  Q 282.26 130.76 280.87 130.34
  Q 279.09 126.94 278.58 123.33
  L 278.70 115.55
  C 279.61 107.84 285.46 102.79 293.05 105.73
  Q 294.43 107.76 296.61 108.86
  Q 298.07 110.51 298.35 113.63
  Q 303.90 114.39 309.44 113.57
  Q 309.70 113.51 309.82 113.40
  Q 309.94 113.30 309.92 113.03
  C 308.58 99.81 296.58 93.30 284.50 95.36
  C 269.09 97.99 264.00 111.73 266.20 125.75
  Q 267.02 130.99 270.27 135.62
  Z
  M 387.65 144.02
  Q 392.13 145.77 396.24 143.86
  C 413.64 140.75 417.90 123.67 413.14 108.76
  Q 412.24 105.96 408.55 101.49
  Q 406.84 98.38 403.59 97.95
  Q 400.98 96.58 400.25 96.38
  C 391.99 94.04 381.02 94.72 374.91 101.67
  C 369.97 107.30 368.60 112.23 368.54 119.99
  Q 368.42 133.80 378.99 141.10
  Q 380.99 142.48 387.65 144.02
  Z
  M 443.48 96.01
  Q 440.55 96.02 439.06 98.38
  Q 436.38 100.64 434.98 103.53
  A 0.61 0.61 0.0 0 1 433.83 103.26
  L 433.89 96.76
  A 0.63 0.63 0.0 0 0 433.26 96.13
  L 422.42 96.10
  A 0.61 0.61 0.0 0 0 421.81 96.71
  L 421.66 142.32
  Q 421.66 143.24 422.57 143.24
  L 433.75 143.24
  Q 434.27 143.24 434.27 142.72
  Q 434.34 128.99 434.33 115.25
  C 434.33 109.74 438.43 105.90 443.77 105.69
  C 449.15 105.47 452.79 108.80 452.70 114.50
  Q 452.48 128.58 452.53 142.74
  Q 452.53 143.23 453.03 143.23
  L 464.73 143.24
  Q 465.20 143.24 465.19 142.77
  Q 465.07 126.63 465.12 110.50
  Q 465.13 107.04 463.36 103.26
  Q 461.94 100.21 459.55 98.41
  C 455.06 95.03 448.90 94.76 443.48 96.01
  Z
  M 361.47 96.39
  A 0.26 0.26 0.0 0 0 361.21 96.13
  L 349.21 96.13
  A 0.26 0.26 0.0 0 0 348.95 96.39
  L 348.95 142.99
  A 0.26 0.26 0.0 0 0 349.21 143.25
  L 361.21 143.25
  A 0.26 0.26 0.0 0 0 361.47 142.99
  L 361.47 96.39
  Z"
/>
<path fill="#ffffff" d="
  M 475.46 64.71
  A 0.70 0.70 0.0 0 0 474.72 64.04
  L 473.23 64.12
  Q 472.70 64.15 472.66 64.68
  C 472.22 71.47 463.68 72.03 462.01 65.75
  C 460.55 60.28 468.68 56.98 472.09 62.22
  A 0.77 0.75 71.8 0 0 472.76 62.57
  L 475.38 62.50
  Q 475.86 62.49 476.12 62.09
  C 480.07 56.25 488.62 61.20 485.54 67.25
  C 482.99 72.25 475.71 70.36 475.46 64.71
  Z
  M 471.12 64.77
  A 3.78 3.78 0.0 0 0 467.34 60.99
  A 3.78 3.78 0.0 0 0 463.56 64.77
  A 3.78 3.78 0.0 0 0 467.34 68.55
  A 3.78 3.78 0.0 0 0 471.12 64.77
  Z
  M 484.56 64.78
  A 3.79 3.79 0.0 0 0 480.77 60.99
  A 3.79 3.79 0.0 0 0 476.98 64.78
  A 3.79 3.79 0.0 0 0 480.77 68.57
  A 3.79 3.79 0.0 0 0 484.56 64.78
  Z"
/>
<circle fill="#5c5e5f" cx="467.34" cy="64.77" r="3.78"/>
<circle fill="#5c5e5f" cx="480.77" cy="64.78" r="3.79"/>
<path fill="#ad5c1c" d="
  M 357.22 78.00
  Q 353.89 77.42 350.93 78.80
  Q 353.06 76.86 356.26 77.24
  Q 357.06 77.33 357.22 78.00
  Z"
/>
<path fill="#080705" d="
  M 357.22 78.00
  L 357.81 78.26
  Q 361.87 80.72 361.85 85.39
  C 357.44 97.10 342.34 86.74 350.93 78.80
  Q 353.89 77.42 357.22 78.00
  Z"
/>
<path fill="#ad5c1c" d="
  M 357.81 78.26
  C 361.18 77.47 362.24 83.25 361.85 85.39
  Q 361.87 80.72 357.81 78.26
  Z"
/>
<path fill="#ad5c1c" d="
  M 181.06 78.82
  L 172.77 80.82
  Q 176.68 78.45 181.06 78.82
  Z"
/>
<path fill="#080705" d="
  M 205.75 87.48
  Q 206.13 89.46 207.71 91.06
  L 208.95 97.65
  L 198.21 97.41
  A 1.49 1.48 -8.2 0 1 196.82 96.37
  Q 194.60 89.15 186.73 88.79
  Q 182.18 88.58 178.52 89.83
  Q 175.15 91.76 174.39 93.92
  C 171.33 102.52 181.24 104.33 187.41 105.59
  Q 194.14 106.95 200.54 109.18
  Q 201.93 110.62 203.77 110.99
  C 205.87 112.98 207.98 114.75 208.87 117.62
  Q 213.07 131.04 202.37 139.53
  C 190.66 145.99 175.51 145.99 164.66 137.78
  Q 162.61 135.61 161.07 132.85
  C 159.92 130.79 159.84 128.31 159.23 125.98
  A 0.58 0.57 -7.0 0 1 159.79 125.27
  L 171.22 125.25
  Q 171.71 125.25 171.83 125.73
  C 173.58 132.72 181.07 134.58 187.43 133.74
  Q 190.18 134.21 192.86 132.23
  Q 195.33 130.99 196.77 128.20
  C 199.10 120.69 191.25 118.06 185.69 117.02
  C 178.68 115.72 174.80 115.02 169.26 112.47
  C 164.52 109.90 161.52 106.14 160.94 100.75
  C 159.96 91.57 164.06 84.32 172.77 80.82
  L 181.06 78.82
  C 190.12 78.09 199.91 80.03 205.75 87.48
  Z"
/>
<path fill="#ffffff" d="
  M 116.38 82.58
  L 121.17 87.27
  L 123.05 92.15
  L 123.01 98.58
  Q 122.96 99.41 122.59 100.06
  Q 122.65 99.85 122.60 99.69
  Q 122.52 99.45 122.42 99.68
  Q 121.00 103.14 118.46 105.99
  Q 115.88 108.28 112.49 109.45
  Q 111.74 109.71 112.52 109.85
  C 119.94 111.23 124.03 114.88 126.14 122.20
  Q 126.32 130.11 122.54 136.27
  Q 120.74 137.49 119.47 139.23
  Q 113.61 143.30 106.88 143.37
  Q 91.70 143.54 76.36 143.39
  A 0.76 0.76 0.0 0 1 75.60 142.63
  L 75.59 80.23
  A 0.70 0.70 0.0 0 1 76.28 79.53
  Q 91.54 79.39 107.00 79.61
  Q 110.66 79.66 116.38 82.58
  Z
  M 89.59 90.20
  L 89.59 105.46
  A 0.37 0.37 0.0 0 0 89.96 105.83
  L 101.03 105.83
  A 8.50 7.07 0.0 0 0 109.53 98.76
  L 109.53 96.90
  A 8.50 7.07 -0.0 0 0 101.03 89.83
  L 89.96 89.83
  A 0.37 0.37 0.0 0 0 89.59 90.20
  Z
  M 89.47 115.78
  L 89.55 132.48
  A 0.78 0.78 0.0 0 0 90.34 133.26
  L 101.70 133.20
  A 10.50 8.05 -0.3 0 0 112.16 125.09
  L 112.14 122.93
  A 10.50 8.05 -0.3 0 0 101.60 114.94
  L 90.24 115.00
  A 0.78 0.78 0.0 0 0 89.47 115.78
  Z"
/>
<path fill="#ad5c1c" d="
  M 116.38 82.58
  Q 119.66 84.35 121.17 87.27
  L 116.38 82.58
  Z"
/>
<path fill="#ad5c1c" d="
  M 329.69 85.40
  L 320.72 85.35
  L 329.69 85.40
  Z"
/>
<path fill="#080705" d="
  M 320.72 85.35
  L 329.69 85.40
  L 331.99 85.42
  Q 332.53 85.43 332.53 85.97
  L 332.53 95.45
  A 0.67 0.67 0.0 0 0 333.20 96.12
  L 341.00 96.16
  Q 341.33 96.16 341.33 96.49
  L 341.38 105.28
  A 0.33 0.33 0.0 0 1 341.05 105.61
  L 332.65 105.59
  Q 332.07 120.18 332.38 128.53
  Q 332.63 135.20 340.80 133.71
  L 340.99 143.14
  C 333.83 142.69 326.88 144.36 321.45 137.96
  C 320.82 136.09 320.18 134.31 320.17 132.28
  Q 320.09 119.22 320.14 106.23
  A 0.61 0.61 0.0 0 0 319.52 105.61
  L 313.41 105.71
  L 314.12 96.01
  L 320.02 95.97
  L 319.98 85.37
  Q 320.20 85.23 320.72 85.35
  Z"
/>
<path fill="#ad5c1c" d="
  M 319.98 85.37
  L 320.02 95.97
  Q 319.14 90.51 319.98 85.37
  Z"
/>
<path fill="#ad5c1c" d="
  M 205.75 87.48
  Q 206.91 87.53 206.89 88.77
  A 1.10 1.09 -67.1 0 0 207.21 89.57
  Q 207.86 90.25 207.71 91.06
  Q 206.13 89.46 205.75 87.48
  Z"
/>
<path fill="#ad5c1c" d="
  M 208.95 97.65
  L 197.23 98.01
  A 1.03 1.03 0.0 0 1 196.19 97.15
  C 195.18 91.03 189.40 89.32 183.99 89.28
  C 182.22 89.26 180.53 90.44 178.52 89.83
  Q 182.18 88.58 186.73 88.79
  Q 194.60 89.15 196.82 96.37
  A 1.49 1.48 -8.2 0 0 198.21 97.41
  L 208.95 97.65
  Z"
/>
<path fill="#080705" d="
  M 89.59 90.20
  A 0.37 0.37 0.0 0 1 89.96 89.83
  L 101.03 89.83
  A 8.50 7.07 -0.0 0 1 109.53 96.90
  L 109.53 98.76
  A 8.50 7.07 -0.0 0 1 101.03 105.83
  L 89.96 105.83
  A 0.37 0.37 0.0 0 1 89.59 105.46
  L 89.59 90.20
  Z"
/>
<path fill="#ad5c1c" d="
  M 123.05 92.15
  Q 123.97 95.34 123.01 98.58
  L 123.05 92.15
  Z"
/>
<path fill="#080705" d="
  M 260.46 122.58
  L 228.79 122.40
  Q 228.24 122.40 228.13 122.94
  Q 227.52 125.92 228.92 128.45
  Q 229.59 130.92 231.72 132.27
  Q 233.28 134.73 236.83 134.73
  Q 239.30 135.27 241.29 134.67
  Q 244.60 134.90 246.60 132.12
  L 248.32 129.40
  A 0.79 0.78 15.8 0 1 248.99 129.03
  L 259.40 129.11
  Q 259.97 129.11 259.97 129.68
  Q 259.97 130.42 259.67 131.23
  L 257.56 135.64
  L 252.97 140.08
  Q 243.23 145.47 231.91 143.17
  L 230.35 142.76
  L 224.98 140.16
  Q 220.00 136.43 219.13 134.26
  Q 218.33 132.27 217.48 130.31
  C 214.97 124.51 215.56 116.02 216.96 109.98
  A 2.37 2.29 70.6 0 1 217.36 109.11
  Q 217.60 108.79 217.88 108.13
  C 222.86 96.40 236.56 91.99 247.88 97.03
  Q 257.31 101.24 259.91 112.26
  Q 260.67 115.51 260.46 122.58
  Z
  M 247.08 109.36
  Q 245.97 106.41 243.11 105.43
  Q 242.55 104.88 241.50 104.73
  Q 229.91 102.99 228.30 114.23
  A 0.57 0.57 0.0 0 0 228.86 114.88
  L 247.75 114.92
  Q 248.23 114.92 248.28 114.45
  Q 248.62 111.53 247.08 109.36
  Z"
/>
<path fill="#080705" d="
  M 309.44 113.57
  L 298.35 113.63
  Q 298.07 110.51 296.61 108.86
  Q 295.74 106.60 293.05 105.73
  C 285.46 102.79 279.61 107.84 278.70 115.55
  Q 277.88 119.28 278.58 123.33
  Q 279.09 126.94 280.87 130.34
  Q 287.81 138.40 295.73 131.84
  Q 297.24 130.13 298.39 126.24
  A 0.12 0.11 5.7 0 1 298.51 126.15
  L 309.50 126.15
  Q 310.10 126.15 310.03 126.76
  Q 309.49 131.66 306.95 135.74
  Q 303.00 140.60 298.26 142.33
  C 288.66 145.84 277.35 143.89 270.27 135.62
  Q 267.02 130.99 266.20 125.75
  C 264.00 111.73 269.09 97.99 284.50 95.36
  C 296.58 93.30 308.58 99.81 309.92 113.03
  Q 309.94 113.30 309.82 113.40
  Q 309.70 113.51 309.44 113.57
  Z"
/>
<path fill="#080705" d="
  M 403.59 97.95
  L 408.55 101.49
  Q 412.24 105.96 413.14 108.76
  C 417.90 123.67 413.64 140.75 396.24 143.86
  L 387.65 144.02
  Q 380.99 142.48 378.99 141.10
  Q 368.42 133.80 368.54 119.99
  C 368.60 112.23 369.97 107.30 374.91 101.67
  C 381.02 94.72 391.99 94.04 400.25 96.38
  Q 400.98 96.58 403.59 97.95
  Z
  M 381.48 115.81
  Q 380.54 119.99 381.49 124.20
  Q 381.98 125.97 382.54 127.70
  Q 384.13 132.64 388.66 134.28
  Q 394.72 135.98 398.03 132.21
  Q 399.57 130.57 400.47 128.49
  Q 401.43 127.42 401.50 125.66
  Q 401.49 125.63 401.47 125.59
  C 402.84 120.63 402.73 114.05 399.87 109.52
  C 397.24 105.32 391.22 102.60 386.83 106.09
  C 384.94 107.59 383.46 108.59 382.65 110.98
  Q 381.87 113.30 381.48 115.81
  Z"
/>
<path fill="#080705" d="
  M 439.06 98.38
  L 443.48 96.01
  C 448.90 94.76 455.06 95.03 459.55 98.41
  Q 461.94 100.21 463.36 103.26
  Q 465.13 107.04 465.12 110.50
  Q 465.07 126.63 465.19 142.77
  Q 465.20 143.24 464.73 143.24
  L 453.03 143.23
  Q 452.53 143.23 452.53 142.74
  Q 452.48 128.58 452.70 114.50
  C 452.79 108.80 449.15 105.47 443.77 105.69
  C 438.43 105.90 434.33 109.74 434.33 115.25
  Q 434.34 128.99 434.27 142.72
  Q 434.27 143.24 433.75 143.24
  L 422.57 143.24
  Q 421.66 143.24 421.66 142.32
  L 421.81 96.71
  A 0.61 0.61 0.0 0 1 422.42 96.10
  L 433.26 96.13
  A 0.63 0.63 0.0 0 1 433.89 96.76
  L 433.83 103.26
  A 0.61 0.61 0.0 0 0 434.98 103.53
  Q 436.38 100.64 439.06 98.38
  Z"
/>
<path fill="#ad5c1c" d="
  M 314.12 96.01
  L 313.41 105.71
  Q 312.37 100.76 312.89 97.00
  Q 313.08 95.59 314.12 96.01
  Z"
/>
<rect fill="#080705" x="348.95" y="96.13" width="12.52" height="47.12" rx="0.26"/>
<path fill="#ad5c1c" d="
  M 443.48 96.01
  L 439.06 98.38
  Q 440.55 96.02 443.48 96.01
  Z"
/>
<path fill="#ad5c1c" d="
  M 403.59 97.95
  Q 406.84 98.38 408.55 101.49
  L 403.59 97.95
  Z"
/>
<path fill="#ad5c1c" d="
  M 122.59 100.06
  Q 121.84 103.78 118.46 105.99
  Q 121.00 103.14 122.42 99.68
  Q 122.52 99.45 122.60 99.69
  Q 122.65 99.85 122.59 100.06
  Z"
/>
<path fill="#f7971d" d="
  M 243.11 105.43
  L 247.08 109.36
  Q 248.62 111.53 248.28 114.45
  Q 248.23 114.92 247.75 114.92
  L 228.86 114.88
  A 0.57 0.57 0.0 0 1 228.30 114.23
  Q 229.91 102.99 241.50 104.73
  Q 242.55 104.88 243.11 105.43
  Z"
/>
<path fill="#f7971d" d="
  M 399.87 109.52
  Q 402.47 117.40 401.47 125.59
  Q 401.49 125.63 401.50 125.66
  Q 400.37 126.67 400.47 128.49
  Q 399.57 130.57 398.03 132.21
  Q 393.74 134.61 388.66 134.28
  Q 384.13 132.64 382.54 127.70
  Q 381.98 125.97 381.49 124.20
  L 381.48 115.81
  Q 381.87 113.30 382.65 110.98
  C 383.46 108.59 384.94 107.59 386.83 106.09
  C 391.22 102.60 397.24 105.32 399.87 109.52
  Z"
/>
<path fill="#ad5c1c" d="
  M 243.11 105.43
  Q 245.97 106.41 247.08 109.36
  L 243.11 105.43
  Z"
/>
<path fill="#ad5c1c" d="
  M 293.05 105.73
  Q 295.74 106.60 296.61 108.86
  Q 294.43 107.76 293.05 105.73
  Z"
/>
<path fill="#ad5c1c" d="
  M 332.65 105.59
  Q 333.85 123.19 333.07 127.76
  C 332.17 133.01 336.65 133.75 340.80 133.71
  Q 332.63 135.20 332.38 128.53
  Q 332.07 120.18 332.65 105.59
  Z"
/>
<path fill="#ad5c1c" d="
  M 200.54 109.18
  Q 202.77 109.17 203.77 110.99
  Q 201.93 110.62 200.54 109.18
  Z"
/>
<path fill="#ad5c1c" d="
  M 399.87 109.52
  C 402.73 114.05 402.84 120.63 401.47 125.59
  Q 402.47 117.40 399.87 109.52
  Z"
/>
<path fill="#ad5c1c" d="
  M 169.26 112.47
  C 174.80 115.02 178.68 115.72 185.69 117.02
  C 191.25 118.06 199.10 120.69 196.77 128.20
  Q 197.26 121.33 190.54 119.23
  Q 185.43 117.64 176.00 115.86
  Q 172.05 115.11 169.26 112.47
  Z"
/>
<path fill="#ad5c1c" d="
  M 309.44 113.57
  Q 303.90 114.39 298.35 113.63
  L 309.44 113.57
  Z"
/>
<path fill="#080705" d="
  M 89.47 115.78
  A 0.78 0.78 0.0 0 1 90.24 115.00
  L 101.60 114.94
  A 10.50 8.05 -0.3 0 1 112.14 122.93
  L 112.16 125.09
  A 10.50 8.05 -0.3 0 1 101.70 133.20
  L 90.34 133.26
  A 0.78 0.78 0.0 0 1 89.55 132.48
  L 89.47 115.78
  Z"
/>
<path fill="#ad5c1c" d="
  M 278.70 115.55
  L 278.58 123.33
  Q 277.88 119.28 278.70 115.55
  Z"
/>
<path fill="#ad5c1c" d="
  M 381.48 115.81
  L 381.49 124.20
  Q 380.54 119.99 381.48 115.81
  Z"
/>
<path fill="#ad5c1c" d="
  M 260.46 122.58
  L 229.80 123.03
  Q 227.99 123.05 228.53 124.78
  Q 229.12 126.63 228.92 128.45
  Q 227.52 125.92 228.13 122.94
  Q 228.24 122.40 228.79 122.40
  L 260.46 122.58
  Z"
/>
<path fill="#ad5c1c" d="
  M 126.14 122.20
  Q 127.48 127.38 124.80 133.26
  Q 123.97 135.10 122.54 136.27
  Q 126.32 130.11 126.14 122.20
  Z"
/>
<path fill="#ad5c1c" d="
  M 401.50 125.66
  Q 401.43 127.42 400.47 128.49
  Q 400.37 126.67 401.50 125.66
  Z"
/>
<path fill="#ad5c1c" d="
  M 280.87 130.34
  Q 282.26 130.76 282.83 131.77
  Q 283.24 132.49 284.00 132.83
  Q 289.60 135.36 295.73 131.84
  Q 287.81 138.40 280.87 130.34
  Z"
/>
<path fill="#ad5c1c" d="
  M 259.67 131.23
  Q 259.81 133.76 257.56 135.64
  L 259.67 131.23
  Z"
/>
<path fill="#ad5c1c" d="
  M 146.12 131.51
  Q 146.90 133.73 146.24 136.46
  L 146.12 131.51
  Z"
/>
<path fill="#ad5c1c" d="
  M 192.86 132.23
  Q 190.18 134.21 187.43 133.74
  L 192.86 132.23
  Z"
/>
<path fill="#ad5c1c" d="
  M 231.72 132.27
  L 236.83 134.73
  Q 233.28 134.73 231.72 132.27
  Z"
/>
<path fill="#ad5c1c" d="
  M 246.60 132.12
  Q 244.60 134.90 241.29 134.67
  L 246.60 132.12
  Z"
/>
<path fill="#ad5c1c" d="
  M 398.03 132.21
  Q 394.72 135.98 388.66 134.28
  Q 393.74 134.61 398.03 132.21
  Z"
/>
<path fill="#ad5c1c" d="
  M 270.27 135.62
  C 277.35 143.89 288.66 145.84 298.26 142.33
  Q 303.00 140.60 306.95 135.74
  C 305.66 139.43 303.45 139.92 300.52 141.76
  C 292.34 146.89 279.88 145.18 273.00 139.49
  Q 271.20 138.00 270.27 135.62
  Z"
/>
<path fill="#5c5e5f" d="
  M 122.54 136.27
  Q 121.81 138.26 119.47 139.23
  Q 120.74 137.49 122.54 136.27
  Z"
/>
<path fill="#ad5c1c" d="
  M 164.66 137.78
  C 175.51 145.99 190.66 145.99 202.37 139.53
  Q 198.86 142.93 193.75 143.89
  Q 184.13 145.70 174.56 143.71
  Q 174.19 143.63 173.93 143.34
  Q 173.65 143.02 173.17 143.10
  Q 172.77 143.16 172.39 143.04
  Q 167.47 141.42 164.66 137.78
  Z"
/>
<path fill="#ad5c1c" d="
  M 321.45 137.96
  C 326.88 144.36 333.83 142.69 340.99 143.14
  Q 336.82 144.60 332.09 143.94
  Q 332.08 143.94 330.92 143.96
  Q 330.32 143.98 329.96 143.43
  Q 329.73 143.10 329.33 143.09
  Q 323.35 143.03 321.45 137.96
  Z"
/>
<path fill="#ad5c1c" d="
  M 252.97 140.08
  Q 252.21 140.91 251.12 141.45
  C 249.25 142.38 248.28 143.65 245.99 143.98
  Q 241.55 144.63 237.04 144.64
  Q 236.55 144.64 236.17 144.33
  C 235.51 143.79 232.99 143.68 231.91 143.17
  Q 243.23 145.47 252.97 140.08
  Z"
/>
<path fill="#ad5c1c" d="
  M 224.98 140.16
  L 230.35 142.76
  Q 225.47 142.39 224.98 140.16
  Z"
/>
<path fill="#ad5c1c" d="
  M 396.24 143.86
  Q 392.13 145.77 387.65 144.02
  L 396.24 143.86
  Z"
/>
<circle fill="#ffffff" cx="259.37" cy="202.08" r="2.24"/>
<circle fill="#ffffff" cx="307.65" cy="202.09" r="2.24"/>
<path fill="#ffffff" d="
  M 432.38 226.20
  Q 439.28 213.59 432.39 200.91
  Q 432.30 200.75 432.48 200.75
  L 435.93 200.75
  Q 436.18 200.75 436.32 200.95
  C 441.87 208.17 441.40 218.96 436.33 226.27
  Q 436.18 226.48 435.93 226.48
  L 432.55 226.48
  Q 432.23 226.48 432.38 226.20
  Z"
/>
<path fill="#ffffff" d="
  M 130.05 213.43
  L 130.04 201.41
  A 0.31 0.31 0.0 0 1 130.35 201.10
  L 134.10 201.07
  A 0.31 0.31 0.0 0 1 134.41 201.38
  L 134.40 221.58
  A 0.31 0.31 0.0 0 1 134.08 221.89
  L 130.71 221.79
  A 0.31 0.31 0.0 0 1 130.46 221.66
  L 121.96 209.30
  A 0.31 0.31 0.0 0 0 121.39 209.47
  L 121.43 221.55
  A 0.31 0.31 0.0 0 1 121.11 221.86
  L 117.32 221.80
  A 0.31 0.31 0.0 0 1 117.02 221.49
  L 117.02 201.39
  A 0.31 0.31 0.0 0 1 117.33 201.08
  L 120.70 201.04
  A 0.31 0.31 0.0 0 1 120.96 201.18
  L 129.48 213.60
  A 0.31 0.31 0.0 0 0 130.05 213.43
  Z"
/>
<path fill="#ffffff" d="
  M 160.31 208.11
  Q 164.11 204.61 167.68 207.03
  C 172.15 210.06 171.94 219.14 166.99 221.63
  Q 163.67 223.30 160.44 220.24
  Q 159.99 219.82 159.96 220.44
  L 159.92 221.36
  A 0.57 0.57 0.0 0 1 159.33 221.90
  L 156.20 221.80
  Q 155.61 221.78 155.61 221.19
  L 155.61 201.48
  Q 155.61 201.06 156.02 201.06
  L 159.52 201.07
  Q 159.96 201.07 159.96 201.52
  L 159.96 207.95
  Q 159.96 208.43 160.31 208.11
  Z
  M 163.1582 218.8200
  A 4.70 3.33 89.9 0 0 166.4800 214.1142
  A 4.70 3.33 89.9 0 0 163.1418 209.4200
  A 4.70 3.33 89.9 0 0 159.8200 214.1258
  A 4.70 3.33 89.9 0 0 163.1582 218.8200
  Z"
/>
<path fill="#ffffff" d="
  M 201.54 207.76
  L 201.57 201.34
  Q 201.57 201.08 201.83 201.08
  L 205.56 201.06
  A 0.26 0.25 -1.1 0 1 205.83 201.31
  L 205.84 221.26
  Q 205.84 221.86 205.24 221.86
  L 202.00 221.81
  A 0.49 0.49 0.0 0 1 201.52 221.25
  L 201.67 220.27
  Q 201.79 219.49 201.26 220.07
  Q 198.51 223.04 195.27 221.91
  C 187.79 219.30 189.35 203.59 199.20 206.68
  Q 200.53 207.10 200.83 207.89
  A 0.37 0.37 0.0 0 0 201.54 207.76
  Z
  M 198.4264 218.8200
  A 4.70 3.31 89.8 0 0 201.7200 214.1084
  A 4.70 3.31 89.8 0 0 198.3936 209.4200
  A 4.70 3.31 89.8 0 0 195.1000 214.1316
  A 4.70 3.31 89.8 0 0 198.4264 218.8200
  Z"
/>
<path fill="#ffffff" d="
  M 335.84 208.14
  Q 338.24 205.48 341.34 206.25
  C 346.76 207.61 347.21 214.74 345.19 218.98
  C 343.52 222.47 338.30 223.43 335.89 220.06
  Q 335.33 219.29 335.31 220.24
  L 335.29 221.31
  Q 335.27 221.90 334.68 221.88
  L 331.66 221.80
  Q 331.04 221.78 331.04 221.16
  L 331.07 201.76
  Q 331.07 201.09 331.74 201.09
  L 334.76 201.08
  Q 335.45 201.07 335.45 201.76
  L 335.41 207.97
  Q 335.40 208.63 335.84 208.14
  Z
  M 338.5882 218.8400
  A 4.71 3.32 89.9 0 0 341.9000 214.1242
  A 4.71 3.32 89.9 0 0 338.5718 209.4200
  A 4.71 3.32 89.9 0 0 335.2600 214.1358
  A 4.71 3.32 89.9 0 0 338.5882 218.8400
  Z"
/>
<path fill="#ffffff" d="
  M 314.26 205.75
  L 314.26 203.39
  Q 314.25 202.54 315.11 202.54
  L 317.84 202.55
  Q 318.63 202.55 318.63 203.34
  L 318.61 205.83
  Q 318.61 206.29 319.08 206.29
  L 320.75 206.26
  Q 321.50 206.25 321.50 207.00
  L 321.50 208.89
  Q 321.50 209.52 320.86 209.51
  L 319.31 209.49
  Q 318.61 209.48 318.61 210.19
  L 318.65 217.81
  Q 318.66 218.47 319.31 218.53
  L 320.57 218.64
  Q 321.19 218.70 321.30 219.31
  L 321.62 221.15
  Q 321.74 221.78 321.11 221.92
  C 312.41 223.88 314.26 215.00 314.28 210.04
  Q 314.28 209.50 313.74 209.50
  L 312.78 209.51
  A 0.61 0.61 0.0 0 1 312.17 208.90
  L 312.16 206.82
  Q 312.16 206.29 312.68 206.29
  L 313.75 206.27
  Q 314.26 206.27 314.26 205.75
  Z"
/>
<path fill="#ffffff" d="
  M 367.25 205.77
  L 367.25 203.39
  Q 367.25 202.54 368.11 202.54
  L 370.86 202.53
  Q 371.69 202.53 371.69 203.36
  L 371.68 205.73
  Q 371.68 206.29 372.23 206.28
  L 373.91 206.26
  Q 374.56 206.26 374.57 206.91
  L 374.60 208.96
  Q 374.61 209.54 374.03 209.53
  L 372.22 209.49
  A 0.54 0.54 0.0 0 0 371.67 210.03
  L 371.70 217.73
  Q 371.70 218.51 372.48 218.56
  L 373.71 218.64
  Q 374.29 218.67 374.40 219.24
  L 374.73 221.03
  Q 374.86 221.71 374.19 221.88
  C 365.37 224.05 367.29 214.85 367.25 209.98
  Q 367.24 209.48 366.75 209.50
  L 365.51 209.53
  A 0.38 0.38 0.0 0 1 365.12 209.14
  L 365.17 206.78
  Q 365.18 206.25 365.72 206.27
  L 366.72 206.29
  Q 367.25 206.30 367.25 205.77
  Z"
/>
<path fill="#ffffff" d="
  M 377.95 209.49
  L 376.77 209.52
  Q 376.27 209.52 376.27 209.02
  L 376.30 206.74
  Q 376.30 206.28 376.76 206.28
  L 377.97 206.28
  Q 378.47 206.29 378.46 205.78
  L 378.42 203.31
  Q 378.41 202.53 379.19 202.54
  L 381.89 202.55
  Q 382.73 202.56 382.73 203.39
  L 382.73 205.76
  Q 382.73 206.30 383.26 206.29
  L 385.00 206.26
  Q 385.64 206.25 385.63 206.88
  L 385.62 208.96
  Q 385.62 209.54 385.04 209.53
  L 383.24 209.49
  Q 382.71 209.48 382.72 210.01
  L 382.74 217.83
  Q 382.74 218.43 383.33 218.49
  L 384.78 218.66
  Q 385.35 218.73 385.45 219.29
  L 385.75 221.18
  Q 385.83 221.64 385.38 221.77
  C 376.61 224.34 378.40 214.73 378.43 209.97
  Q 378.43 209.49 377.95 209.49
  Z"
/>
<path fill="#ffffff" d="
  M 152.6352 215.1501
  A 6.93 6.93 0.0 0 1 145.7416 222.1163
  L 144.3816 222.1235
  A 6.93 6.93 0.0 0 1 137.4154 215.2298
  L 137.4048 213.1899
  A 6.93 6.93 0.0 0 1 144.2984 206.2237
  L 145.6584 206.2165
  A 6.93 6.93 0.0 0 1 152.6246 213.1102
  L 152.6352 215.1501
  Z
  M 145.0200 218.9700
  A 4.83 3.33 90.0 0 0 148.3500 214.1400
  A 4.83 3.33 90.0 0 0 145.0200 209.3100
  A 4.83 3.33 90.0 0 0 141.6900 214.1400
  A 4.83 3.33 90.0 0 0 145.0200 218.9700
  Z"
/>
<path fill="#ffffff" d="
  M 188.3604 215.1104
  A 6.91 6.91 0.0 0 1 181.5231 222.0923
  L 180.1432 222.1068
  A 6.91 6.91 0.0 0 1 173.1612 215.2695
  L 173.1396 213.2096
  A 6.91 6.91 0.0 0 1 179.9769 206.2277
  L 181.3568 206.2132
  A 6.91 6.91 0.0 0 1 188.3388 213.0505
  L 188.3604 215.1104
  Z
  M 180.7331 218.9900
  A 4.85 3.34 90.2 0 0 184.0900 214.1517
  A 4.85 3.34 90.2 0 0 180.7669 209.2900
  A 4.85 3.34 90.2 0 0 177.4100 214.1283
  A 4.85 3.34 90.2 0 0 180.7331 218.9900
  Z"
/>
<path fill="#ffffff" d="
  M 216.43 216.85
  L 219.23 206.88
  Q 219.39 206.28 220.02 206.28
  L 223.29 206.27
  A 0.52 0.52 0.0 0 1 223.78 206.96
  Q 220.80 215.37 217.92 223.71
  Q 216.02 229.24 209.72 227.66
  A 0.32 0.32 0.0 0 1 209.49 227.28
  L 210.15 224.41
  Q 210.22 224.10 210.53 224.18
  C 213.08 224.78 214.24 223.46 213.38 221.04
  Q 210.91 214.10 208.41 206.81
  Q 208.23 206.27 208.80 206.27
  L 212.16 206.29
  Q 212.80 206.29 212.98 206.92
  L 215.74 216.85
  Q 216.08 218.10 216.43 216.85
  Z"
/>
<path fill="#ffffff" d="
  M 250.70 206.28
  L 254.46 206.26
  A 0.30 0.30 0.0 0 1 254.75 206.64
  L 250.75 221.62
  A 0.30 0.30 0.0 0 1 250.46 221.84
  L 246.27 221.84
  A 0.30 0.30 0.0 0 1 245.98 221.62
  L 243.56 212.74
  A 0.30 0.30 0.0 0 0 242.98 212.74
  L 240.66 221.58
  A 0.30 0.30 0.0 0 1 240.37 221.80
  L 236.14 221.86
  A 0.30 0.30 0.0 0 1 235.85 221.64
  L 231.76 206.67
  A 0.30 0.30 0.0 0 1 232.05 206.29
  L 235.87 206.27
  A 0.30 0.30 0.0 0 1 236.16 206.51
  L 238.24 215.94
  A 0.30 0.30 0.0 0 0 238.82 215.94
  L 241.05 206.52
  A 0.30 0.30 0.0 0 1 241.34 206.29
  L 245.24 206.26
  A 0.30 0.30 0.0 0 1 245.53 206.49
  L 247.78 216.05
  A 0.30 0.30 0.0 0 0 248.37 216.04
  L 250.41 206.52
  A 0.30 0.30 0.0 0 1 250.70 206.28
  Z"
/>
<rect fill="#ffffff" x="257.21" y="206.27" width="4.30" height="15.60" rx="0.30"/>
<path fill="#ffffff" d="
  M 269.03 207.92
  Q 269.07 209.30 269.75 208.10
  C 271.29 205.36 276.32 205.58 278.18 208.00
  C 280.10 210.50 279.45 218.54 279.27 221.56
  Q 279.26 221.83 278.99 221.83
  L 275.30 221.84
  Q 275.00 221.84 275.00 221.54
  L 274.95 211.83
  A 2.11 2.11 0.0 0 0 272.86 209.73
  L 272.07 209.72
  A 2.72 2.72 0.0 0 0 269.31 212.43
  L 269.29 221.52
  A 0.31 0.31 0.0 0 1 268.98 221.83
  L 265.27 221.84
  Q 264.95 221.84 264.95 221.52
  L 264.95 206.78
  Q 264.95 206.26 265.47 206.27
  L 268.53 206.29
  Q 269.19 206.29 269.10 206.94
  Q 269.02 207.53 269.03 207.92
  Z"
/>
<path fill="#ffffff" d="
  M 291.63 217.88
  A 1.39 1.38 -77.2 0 0 290.58 216.21
  C 287.51 215.54 282.78 215.25 282.41 211.15
  C 281.86 205.09 294.00 204.06 295.61 210.17
  Q 295.76 210.72 295.19 210.77
  L 292.55 211.01
  Q 291.98 211.06 291.67 210.59
  C 290.68 209.11 287.47 208.24 286.87 210.42
  Q 286.67 211.14 287.25 211.67
  C 289.04 213.34 293.54 212.17 295.33 214.83
  C 299.97 221.69 284.36 225.88 282.15 217.88
  Q 281.99 217.32 282.57 217.30
  L 285.52 217.21
  Q 286.18 217.19 286.53 217.74
  Q 287.81 219.78 290.48 218.90
  Q 291.47 218.57 291.63 217.88
  Z"
/>
<rect fill="#ffffff" x="305.50" y="206.27" width="4.26" height="15.58" rx="0.30"/>
<path fill="#ffffff" d="
  M 353.77 215.22
  Q 352.40 215.22 352.95 216.48
  L 353.09 216.80
  Q 353.78 218.39 355.45 218.86
  Q 357.82 219.53 359.11 217.64
  Q 359.44 217.16 360.02 217.20
  L 362.79 217.36
  Q 363.52 217.40 363.24 218.08
  Q 361.78 221.64 358.27 222.03
  Q 348.18 223.16 348.58 213.26
  C 348.97 203.63 363.76 203.13 363.42 214.80
  Q 363.41 215.24 362.98 215.23
  L 353.77 215.22
  Z
  M 353.03 212.58
  L 359.13 212.44
  A 0.17 0.17 0.0 0 0 359.29 212.26
  L 359.29 212.19
  A 3.09 2.98 -1.4 0 0 356.13 209.29
  L 355.87 209.29
  A 3.09 2.98 -1.4 0 0 352.85 212.35
  L 352.86 212.42
  A 0.17 0.17 0.0 0 0 353.03 212.58
  Z"
/>
<path fill="#ffffff" d="
  M 392.30 215.68
  C 392.10 219.03 396.75 220.25 398.26 217.72
  Q 398.61 217.15 399.27 217.19
  L 402.23 217.37
  A 0.46 0.46 0.0 0 1 402.63 218.00
  C 400.91 222.06 396.26 222.93 392.49 221.71
  C 387.28 220.02 386.78 212.73 389.43 209.07
  C 394.05 202.69 403.78 206.83 402.63 214.87
  Q 402.58 215.23 402.22 215.23
  L 392.79 215.23
  Q 392.33 215.23 392.30 215.68
  Z
  M 392.40 212.50
  L 398.46 212.54
  A 0.17 0.17 0.0 0 0 398.63 212.37
  L 398.63 212.31
  A 3.08 2.99 0.4 0 0 395.57 209.30
  L 395.33 209.30
  A 3.08 2.99 0.4 0 0 392.23 212.27
  L 392.23 212.33
  A 0.17 0.17 0.0 0 0 392.40 212.50
  Z"
/>
<path fill="#ffffff" d="
  M 410.22 208.36
  Q 411.79 205.24 415.41 206.40
  Q 415.77 206.51 415.67 206.88
  L 414.88 209.63
  A 0.53 0.52 15.0 0 1 414.25 209.99
  C 408.22 208.56 409.98 218.32 409.94 221.53
  A 0.33 0.33 0.0 0 1 409.61 221.85
  L 405.84 221.85
  Q 405.53 221.85 405.53 221.54
  L 405.53 206.75
  Q 405.53 206.27 406.00 206.27
  L 409.29 206.27
  Q 409.80 206.27 409.79 206.79
  L 409.76 208.24
  Q 409.73 209.34 410.22 208.36
  Z"
/>
<circle fill="#ffffff" cx="427.00" cy="208.81" r="2.42"/>
<ellipse fill="#080705" cx="0.00" cy="0.00" transform="translate(180.75,214.14) rotate(90.2)" rx="4.85" ry="3.34"/>
<path fill="#080705" d="
  M 353.03 212.58
  A 0.17 0.17 0.0 0 1 352.86 212.42
  L 352.85 212.35
  A 3.09 2.98 -1.4 0 1 355.87 209.29
  L 356.13 209.29
  A 3.09 2.98 -1.4 0 1 359.29 212.19
  L 359.29 212.26
  A 0.17 0.17 0.0 0 1 359.13 212.44
  L 353.03 212.58
  Z"
/>
<path fill="#080705" d="
  M 392.40 212.50
  A 0.17 0.17 0.0 0 1 392.23 212.33
  L 392.23 212.27
  A 3.08 2.99 0.4 0 1 395.33 209.30
  L 395.57 209.30
  A 3.08 2.99 0.4 0 1 398.63 212.31
  L 398.63 212.37
  A 0.17 0.17 0.0 0 1 398.46 212.54
  L 392.40 212.50
  Z"
/>
<ellipse fill="#080705" cx="0.00" cy="0.00" transform="translate(145.02,214.14) rotate(90.0)" rx="4.83" ry="3.33"/>
<ellipse fill="#080705" cx="0.00" cy="0.00" transform="translate(163.15,214.12) rotate(89.9)" rx="4.70" ry="3.33"/>
<ellipse fill="#080705" cx="0.00" cy="0.00" transform="translate(198.41,214.12) rotate(89.8)" rx="4.70" ry="3.31"/>
<ellipse fill="#080705" cx="0.00" cy="0.00" transform="translate(338.58,214.13) rotate(89.9)" rx="4.71" ry="3.32"/>
<circle fill="#ffffff" cx="427.00" cy="219.74" r="2.41"/>
</svg>
